<svg width="55" height="21" viewBox="0 0 55 21" fill="none" xmlns="http://www.w3.org/2000/svg">
<g clip-path="url(#clip0_76_639)">
<path d="M29.0315 6.01249C29.0315 6.6251 28.538 7.1186 27.9254 7.1186C27.3128 7.1186 26.8193 6.6251 26.8193 6.01249C26.8193 5.39988 27.2958 4.90638 27.9254 4.90638C28.555 4.9234 29.0315 5.41689 29.0315 6.01249ZM24.4709 8.24172C24.4709 8.34383 24.4709 8.514 24.4709 8.514C24.4709 8.514 23.9434 7.83331 22.8203 7.83331C20.9654 7.83331 19.519 9.24573 19.519 11.2027C19.519 13.1426 20.9484 14.5721 22.8203 14.5721C23.9604 14.5721 24.4709 13.8744 24.4709 13.8744V14.1637C24.4709 14.2998 24.573 14.4019 24.7092 14.4019H26.0875V8.00348C26.0875 8.00348 24.8283 8.00348 24.7092 8.00348C24.573 8.00348 24.4709 8.1226 24.4709 8.24172ZM24.4709 12.3428C24.2157 12.7172 23.7052 13.0405 23.0926 13.0405C22.0035 13.0405 21.1696 12.3598 21.1696 11.2027C21.1696 10.0455 22.0035 9.36485 23.0926 9.36485C23.6881 9.36485 24.2327 9.70519 24.4709 10.0625V12.3428ZM27.1086 8.00348H28.7422V14.4019H27.1086V8.00348ZM51.511 7.83331C50.3879 7.83331 49.8604 8.514 49.8604 8.514V4.9234H48.2267V14.4019C48.2267 14.4019 49.486 14.4019 49.6051 14.4019C49.7412 14.4019 49.8433 14.2828 49.8433 14.1637V13.8744C49.8433 13.8744 50.3709 14.5721 51.494 14.5721C53.3489 14.5721 54.7953 13.1426 54.7953 11.2027C54.7953 9.26275 53.3489 7.83331 51.511 7.83331ZM51.2387 13.0235C50.6091 13.0235 50.1156 12.7002 49.8604 12.3258V10.0455C50.1156 9.70519 50.6602 9.34783 51.2387 9.34783C52.3278 9.34783 53.1617 10.0285 53.1617 11.1857C53.1617 12.3428 52.3278 13.0235 51.2387 13.0235ZM47.3759 10.6071V14.4189H45.7422V10.7943C45.7422 9.73922 45.4019 9.3138 44.483 9.3138C43.9895 9.3138 43.479 9.56905 43.1556 9.94343V14.4019H41.522V8.00348H42.8153C42.9514 8.00348 43.0535 8.1226 43.0535 8.24172V8.514C43.53 8.0205 44.1596 7.83331 44.7893 7.83331C45.504 7.83331 46.0996 8.03752 46.5761 8.44593C47.1546 8.92241 47.3759 9.53502 47.3759 10.6071ZM37.557 7.83331C36.4339 7.83331 35.9064 8.514 35.9064 8.514V4.9234H34.2727V14.4019C34.2727 14.4019 35.532 14.4019 35.6511 14.4019C35.7873 14.4019 35.8894 14.2828 35.8894 14.1637V13.8744C35.8894 13.8744 36.4169 14.5721 37.54 14.5721C39.3949 14.5721 40.8413 13.1426 40.8413 11.2027C40.8583 9.26275 39.4119 7.83331 37.557 7.83331ZM37.2848 13.0235C36.6551 13.0235 36.1616 12.7002 35.9064 12.3258V10.0455C36.1616 9.70519 36.7062 9.34783 37.2848 9.34783C38.3739 9.34783 39.2077 10.0285 39.2077 11.1857C39.2077 12.3428 38.3739 13.0235 37.2848 13.0235ZM32.8603 7.83331C33.3538 7.83331 33.6091 7.9184 33.6091 7.9184V9.43292C33.6091 9.43292 32.2477 8.97346 31.3969 9.94343V14.4189H29.7632V8.00348C29.7632 8.00348 31.0225 8.00348 31.1416 8.00348C31.2777 8.00348 31.3799 8.1226 31.3799 8.24172V8.514C31.6862 8.15664 32.3498 7.83331 32.8603 7.83331ZM15.8943 13.8233C15.8093 13.6191 15.7242 13.3979 15.6391 13.2107C15.5029 12.9044 15.3668 12.6151 15.2477 12.3428L15.2307 12.3258C14.0565 9.77326 12.7972 7.18667 11.4699 4.63411L11.4189 4.53201C11.2827 4.27675 11.1466 4.00448 11.0104 3.73221C10.8403 3.4259 10.6701 3.10257 10.3978 2.79627C9.85329 2.11559 9.07051 1.74121 8.23667 1.74121C7.38582 1.74121 6.62005 2.11559 6.05849 2.76223C5.80323 3.06854 5.61605 3.39186 5.44588 3.69817C5.30974 3.97044 5.1736 4.24272 5.03747 4.49797L4.98641 4.60008C3.6761 7.15263 2.39982 9.73922 1.22565 12.2918L1.20863 12.3258C1.08951 12.5981 0.953375 12.8874 0.817239 13.1937C0.732154 13.3809 0.647069 13.5851 0.561983 13.8063C0.340762 14.4359 0.272694 15.0315 0.357779 15.6441C0.544966 16.9204 1.39582 17.9925 2.56999 18.469C3.01244 18.6562 3.4719 18.7412 3.94837 18.7412C4.08451 18.7412 4.25468 18.7242 4.39082 18.7072C4.95238 18.6391 5.53096 18.452 6.09252 18.1286C6.79022 17.7372 7.45389 17.1757 8.20264 16.3589C8.95139 17.1757 9.63207 17.7372 10.3127 18.1286C10.8743 18.452 11.4529 18.6391 12.0145 18.7072C12.1506 18.7242 12.3208 18.7412 12.4569 18.7412C12.9334 18.7412 13.4099 18.6562 13.8353 18.469C15.0265 17.9925 15.8603 16.9034 16.0475 15.6441C16.1836 15.0485 16.1156 14.4529 15.8943 13.8233ZM8.21965 14.7082C7.30073 13.551 6.70514 12.462 6.50093 11.543C6.41585 11.1516 6.39883 10.8113 6.44988 10.505C6.48391 10.2327 6.58602 9.99448 6.72215 9.79027C7.04548 9.33081 7.59002 9.04152 8.21965 9.04152C8.84928 9.04152 9.41085 9.3138 9.71715 9.79027C9.85329 9.99448 9.95539 10.2327 9.98943 10.505C10.0405 10.8113 10.0235 11.1687 9.93837 11.543C9.73417 12.4449 9.13857 13.534 8.21965 14.7082ZM15.0095 15.508C14.8903 16.3929 14.2947 17.1587 13.4609 17.499C13.0525 17.6692 12.6101 17.7202 12.1676 17.6692C11.7422 17.6181 11.3168 17.482 10.8743 17.2267C10.2617 16.8864 9.64909 16.3589 8.93437 15.5761C10.0575 14.1977 10.7382 12.9384 10.9934 11.8153C11.1126 11.2878 11.1296 10.8113 11.0785 10.3689C11.0104 9.94343 10.8573 9.55204 10.6191 9.2117C10.0915 8.44593 9.20664 8.00348 8.21965 8.00348C7.23267 8.00348 6.34778 8.46295 5.82025 9.2117C5.58201 9.55204 5.42886 9.94343 5.36079 10.3689C5.29272 10.8113 5.30974 11.3048 5.44588 11.8153C5.70113 12.9384 6.39883 14.2147 7.50494 15.5931C6.80724 16.3759 6.17761 16.9034 5.56499 17.2437C5.12255 17.499 4.69712 17.6351 4.2717 17.6862C3.81224 17.7372 3.3698 17.6692 2.9784 17.516C2.14457 17.1757 1.54897 16.4099 1.42985 15.525C1.3788 15.0996 1.41284 14.6742 1.58301 14.1977C1.63406 14.0275 1.71914 13.8573 1.80423 13.6531C1.92335 13.3809 2.05948 13.0916 2.19562 12.8023L2.21264 12.7683C3.38681 10.2327 4.64607 7.64613 5.95639 5.1276L6.00744 5.0255C6.14357 4.77025 6.27971 4.49797 6.41585 4.24272C6.55198 3.97044 6.70514 3.71519 6.89232 3.49397C7.24968 3.08556 7.72616 2.86434 8.25369 2.86434C8.78122 2.86434 9.25769 3.08556 9.61505 3.49397C9.80224 3.71519 9.95539 3.97044 10.0915 4.24272C10.2277 4.49797 10.3638 4.77025 10.4999 5.0255L10.551 5.1276C11.8443 7.66314 13.1035 10.2497 14.2777 12.7853V12.8023C14.4139 13.0746 14.533 13.3809 14.6691 13.6531C14.7542 13.8573 14.8393 14.0275 14.8903 14.1977C15.0265 14.6401 15.0775 15.0656 15.0095 15.508Z" fill="#6B7070"/>
</g>
<defs>
<clipPath id="clip0_76_639">
<rect width="54.4001" height="20.4" fill="white" transform="translate(0.323792 0.0412598)"/>
</clipPath>
</defs>
</svg>
