<svg width="409" height="214" viewBox="0 0 409 214" fill="none" xmlns="http://www.w3.org/2000/svg">
<path d="M313.412 181.898C314.25 181.887 314.919 181.198 314.908 180.361C314.896 179.523 314.208 178.854 313.37 178.865C312.533 178.877 311.863 179.565 311.875 180.403C311.886 181.24 312.575 181.91 313.412 181.898Z" fill="url(#paint0_linear_66_2488)" stroke="#FFC107" stroke-width="2.27911" stroke-miterlimit="10" stroke-linecap="round" stroke-linejoin="round"/>
<path opacity="0.46" d="M406.01 157.09C406.847 157.079 407.517 156.39 407.505 155.553C407.494 154.715 406.805 154.046 405.968 154.057C405.13 154.069 404.461 154.757 404.472 155.595C404.484 156.432 405.172 157.102 406.01 157.09Z" fill="url(#paint1_linear_66_2488)" stroke="#FFC107" stroke-width="2.27911" stroke-miterlimit="10" stroke-linecap="round" stroke-linejoin="round"/>
<path opacity="0.46" d="M129.034 6.84406C129.871 6.83251 130.541 6.1442 130.529 5.30667C130.518 4.46915 129.829 3.79957 128.992 3.81112C128.154 3.82267 127.485 4.51097 127.496 5.3485C127.508 6.18602 128.196 6.85561 129.034 6.84406Z" fill="url(#paint2_linear_66_2488)" stroke="#FFC107" stroke-width="2.27911" stroke-miterlimit="10" stroke-linecap="round" stroke-linejoin="round"/>
<path d="M275.562 96.7956C276.831 96.7781 277.846 95.7352 277.828 94.4662C277.811 93.1973 276.768 92.1828 275.499 92.2002C274.23 92.2177 273.215 93.2606 273.233 94.5296C273.25 95.7986 274.293 96.8131 275.562 96.7956Z" fill="url(#paint3_linear_66_2488)" stroke="#FFC107" stroke-width="2.27911" stroke-miterlimit="10" stroke-linecap="round" stroke-linejoin="round"/>
<path d="M24.488 208.22C25.2747 208.209 25.9037 207.562 25.8929 206.775C25.882 205.989 25.2354 205.36 24.4487 205.37C23.6619 205.381 23.0329 206.028 23.0438 206.815C23.0546 207.601 23.7012 208.23 24.488 208.22Z" fill="url(#paint4_linear_66_2488)" stroke="#FFC107" stroke-width="2.27911" stroke-miterlimit="10" stroke-linecap="round" stroke-linejoin="round"/>
<path d="M226.313 145.228C227.328 145.214 228.14 144.379 228.126 143.364C228.112 142.349 227.277 141.537 226.262 141.551C225.247 141.565 224.435 142.4 224.449 143.415C224.463 144.43 225.298 145.242 226.313 145.228Z" fill="url(#paint5_linear_66_2488)" stroke="#FFC107" stroke-width="2.27911" stroke-miterlimit="10" stroke-linecap="round" stroke-linejoin="round"/>
<path d="M172.504 106.118C173.341 106.107 174.011 105.419 173.999 104.581C173.988 103.744 173.299 103.074 172.462 103.086C171.624 103.097 170.955 103.785 170.966 104.623C170.978 105.46 171.666 106.13 172.504 106.118Z" fill="url(#paint6_linear_66_2488)" stroke="#FFC107" stroke-width="2.27911" stroke-miterlimit="10" stroke-linecap="round" stroke-linejoin="round"/>
<path d="M390.073 208.238C391.088 208.224 391.899 207.39 391.885 206.374C391.871 205.359 391.037 204.548 390.022 204.562C389.007 204.576 388.195 205.41 388.209 206.425C388.223 207.44 389.058 208.252 390.073 208.238Z" fill="url(#paint7_linear_66_2488)" stroke="#FFC107" stroke-width="2.27911" stroke-miterlimit="10" stroke-linecap="round" stroke-linejoin="round"/>
<path d="M70.3088 121.137C70.8418 121.13 71.2679 120.692 71.2605 120.159C71.2532 119.626 70.8151 119.2 70.2822 119.207C69.7492 119.215 69.3231 119.653 69.3304 120.186C69.3378 120.719 69.7758 121.145 70.3088 121.137Z" fill="url(#paint8_linear_66_2488)" stroke="#FFC107" stroke-width="2.27911" stroke-miterlimit="10" stroke-linecap="round" stroke-linejoin="round"/>
<path d="M2.96009 150.241C3.49306 150.234 3.91916 149.796 3.91181 149.263C3.90446 148.73 3.46644 148.304 2.93347 148.311C2.4005 148.319 1.9744 148.757 1.98175 149.29C1.9891 149.823 2.42712 150.249 2.96009 150.241Z" fill="url(#paint9_linear_66_2488)" stroke="#FFC107" stroke-width="2.27911" stroke-miterlimit="10" stroke-linecap="round" stroke-linejoin="round"/>
<path d="M354.639 168.736L357.993 168.69" stroke="#FFC107" stroke-width="2.27911" stroke-miterlimit="10" stroke-linecap="round" stroke-linejoin="round"/>
<path d="M356.271 167.058L356.317 170.413" stroke="#FFC107" stroke-width="2.27911" stroke-miterlimit="10" stroke-linecap="round" stroke-linejoin="round"/>
<g opacity="0.6">
<path opacity="0.6" d="M319.58 19.2964L322.98 19.2495" stroke="#FFC107" stroke-width="2.27911" stroke-miterlimit="10" stroke-linecap="round" stroke-linejoin="round"/>
<path opacity="0.6" d="M321.259 17.5688L321.306 20.9694" stroke="#FFC107" stroke-width="2.27911" stroke-miterlimit="10" stroke-linecap="round" stroke-linejoin="round"/>
</g>
<path d="M290.751 131.66L293.37 131.624" stroke="#FFC107" stroke-width="2.27911" stroke-miterlimit="10" stroke-linecap="round" stroke-linejoin="round"/>
<path d="M292.067 130.308L292.103 132.927" stroke="#FFC107" stroke-width="2.27911" stroke-miterlimit="10" stroke-linecap="round" stroke-linejoin="round"/>
<path d="M190.627 50.4873L193.247 50.4512" stroke="#FFC107" stroke-width="2.27911" stroke-miterlimit="10" stroke-linecap="round" stroke-linejoin="round"/>
<path d="M191.945 49.1826L191.98 51.756" stroke="#FFC107" stroke-width="2.27911" stroke-miterlimit="10" stroke-linecap="round" stroke-linejoin="round"/>
<path d="M94.7535 137.435L98.3379 137.386" stroke="#FFC107" stroke-width="2.27911" stroke-miterlimit="10" stroke-linecap="round" stroke-linejoin="round"/>
<path d="M96.5214 135.617L96.5702 139.156" stroke="#FFC107" stroke-width="2.27911" stroke-miterlimit="10" stroke-linecap="round" stroke-linejoin="round"/>
<path d="M78.0916 189.103L82.8248 189.038" stroke="#FFC107" stroke-width="2.27911" stroke-miterlimit="10" stroke-linecap="round" stroke-linejoin="round"/>
<path d="M80.4019 186.68L80.4678 191.459" stroke="#FFC107" stroke-width="2.27911" stroke-miterlimit="10" stroke-linecap="round" stroke-linejoin="round"/>
<path d="M117.349 162.861C117.845 162.165 118.587 162.66 119.083 161.964C119.579 161.267 118.836 160.726 119.332 160.03C119.828 159.334 120.57 159.829 121.066 159.133C121.562 158.436 120.82 157.895 121.315 157.153C121.811 156.457 122.553 156.952 123.049 156.256" fill="url(#paint10_linear_66_2488)"/>
<path d="M117.349 162.861C117.845 162.165 118.587 162.66 119.083 161.964C119.579 161.267 118.836 160.726 119.332 160.03C119.828 159.334 120.57 159.829 121.066 159.133C121.562 158.436 120.82 157.895 121.315 157.153C121.811 156.457 122.553 156.952 123.049 156.256" stroke="#FFC107" stroke-width="2.27911" stroke-miterlimit="10" stroke-linecap="round" stroke-linejoin="round"/>
<g opacity="0.4">
<g opacity="0.4">
<path d="M18.466 184.636C18.1789 183.812 19.0016 183.479 18.7151 182.702C18.428 181.878 17.5593 182.212 17.2262 181.389C16.9391 180.566 17.7618 180.233 17.4753 179.456C17.1882 178.632 16.3195 178.966 15.9864 178.143C15.6993 177.32 16.522 176.987 16.2355 176.209" fill="url(#paint11_linear_66_2488)"/>
<path d="M18.466 184.636C18.1789 183.812 19.0016 183.479 18.7151 182.702C18.428 181.878 17.5593 182.212 17.2262 181.389C16.9391 180.566 17.7618 180.233 17.4753 179.456C17.1882 178.632 16.3195 178.966 15.9864 178.143C15.6993 177.32 16.522 176.987 16.2355 176.209" stroke="#FFC107" stroke-width="2.27911" stroke-miterlimit="10" stroke-linecap="round" stroke-linejoin="round"/>
</g>
</g>
<path d="M337.674 134.683C336.887 134.28 337.29 133.493 336.503 133.09C335.716 132.688 335.314 133.52 334.527 133.164C333.741 132.761 334.143 131.974 333.356 131.571C332.569 131.168 332.167 132.001 331.381 131.644C330.594 131.241 330.997 130.455 330.21 130.052" fill="url(#paint12_linear_66_2488)"/>
<path d="M337.674 134.683C336.887 134.28 337.29 133.493 336.503 133.09C335.716 132.688 335.314 133.52 334.527 133.164C333.741 132.761 334.143 131.974 333.356 131.571C332.569 131.168 332.167 132.001 331.381 131.644C330.594 131.241 330.997 130.455 330.21 130.052" stroke="#FFC107" stroke-width="2.27911" stroke-miterlimit="10" stroke-linecap="round" stroke-linejoin="round"/>
<g opacity="0.53">
<g opacity="0.53">
<path d="M132 205.358C131.453 205.687 130.982 204.912 130.435 205.241C129.888 205.571 130.359 206.346 129.858 206.674C129.311 207.004 128.84 206.229 128.293 206.558C127.746 206.887 128.217 207.662 127.716 207.991C127.215 208.319 126.698 207.545 126.151 207.874" fill="url(#paint13_linear_66_2488)"/>
<path d="M132 205.358C131.453 205.687 130.982 204.912 130.435 205.241C129.888 205.571 130.359 206.346 129.858 206.674C129.311 207.004 128.84 206.229 128.293 206.558C127.746 206.887 128.217 207.662 127.716 207.991C127.215 208.319 126.698 207.545 126.151 207.874" stroke="#FFC107" stroke-width="2.27911" stroke-miterlimit="10" stroke-linecap="round" stroke-linejoin="round"/>
</g>
</g>
<path d="M377.547 116.438C378.37 116.151 378.659 117.066 379.482 116.779C380.306 116.492 380.018 115.622 380.842 115.381C381.665 115.094 381.954 116.009 382.777 115.722C383.6 115.435 383.312 114.566 384.136 114.325C384.96 114.083 385.248 114.953 386.072 114.666" fill="url(#paint14_linear_66_2488)"/>
<path d="M377.547 116.438C378.37 116.151 378.659 117.066 379.482 116.779C380.306 116.492 380.018 115.622 380.842 115.381C381.665 115.094 381.954 116.009 382.777 115.722C383.6 115.435 383.312 114.566 384.136 114.325C384.96 114.083 385.248 114.953 386.072 114.666" stroke="#FFC107" stroke-width="2.27911" stroke-miterlimit="10" stroke-linecap="round" stroke-linejoin="round"/>
<path d="M224.827 97.3095C225.65 97.0223 225.939 97.9376 226.762 97.6505C227.585 97.3634 227.298 96.494 228.122 96.2529C228.945 95.9657 229.233 96.881 230.057 96.5939C230.88 96.3067 230.592 95.4374 231.416 95.1963C232.24 94.9551 232.528 95.8244 233.351 95.5373" fill="url(#paint15_linear_66_2488)"/>
<path d="M224.827 97.3095C225.65 97.0223 225.939 97.9376 226.762 97.6505C227.585 97.3634 227.298 96.494 228.122 96.2529C228.945 95.9657 229.233 96.881 230.057 96.5939C230.88 96.3067 230.592 95.4374 231.416 95.1963C232.24 94.9551 232.528 95.8244 233.351 95.5373" stroke="#FFC107" stroke-width="2.27911" stroke-miterlimit="10" stroke-linecap="round" stroke-linejoin="round"/>
<defs>
<linearGradient id="paint0_linear_66_2488" x1="312.393" y1="179.089" x2="315.017" y2="181.718" gradientUnits="userSpaceOnUse">
<stop stop-color="#2E6AE0"/>
<stop offset="0.444709" stop-color="#141B52"/>
<stop offset="1" stop-color="#8F5ED7"/>
</linearGradient>
<linearGradient id="paint1_linear_66_2488" x1="404.99" y1="154.281" x2="407.615" y2="156.91" gradientUnits="userSpaceOnUse">
<stop stop-color="#2E6AE0"/>
<stop offset="0.444709" stop-color="#141B52"/>
<stop offset="1" stop-color="#8F5ED7"/>
</linearGradient>
<linearGradient id="paint2_linear_66_2488" x1="128.014" y1="4.03526" x2="130.639" y2="6.66353" gradientUnits="userSpaceOnUse">
<stop stop-color="#2E6AE0"/>
<stop offset="0.444709" stop-color="#141B52"/>
<stop offset="1" stop-color="#8F5ED7"/>
</linearGradient>
<linearGradient id="paint3_linear_66_2488" x1="274.018" y1="92.5399" x2="277.994" y2="96.5221" gradientUnits="userSpaceOnUse">
<stop stop-color="#2E6AE0"/>
<stop offset="0.444709" stop-color="#141B52"/>
<stop offset="1" stop-color="#8F5ED7"/>
</linearGradient>
<linearGradient id="paint4_linear_66_2488" x1="23.5304" y1="205.581" x2="25.9957" y2="208.05" gradientUnits="userSpaceOnUse">
<stop stop-color="#2E6AE0"/>
<stop offset="0.444709" stop-color="#141B52"/>
<stop offset="1" stop-color="#8F5ED7"/>
</linearGradient>
<linearGradient id="paint5_linear_66_2488" x1="225.077" y1="141.823" x2="228.258" y2="145.009" gradientUnits="userSpaceOnUse">
<stop stop-color="#2E6AE0"/>
<stop offset="0.444709" stop-color="#141B52"/>
<stop offset="1" stop-color="#8F5ED7"/>
</linearGradient>
<linearGradient id="paint6_linear_66_2488" x1="171.484" y1="103.31" x2="174.109" y2="105.938" gradientUnits="userSpaceOnUse">
<stop stop-color="#2E6AE0"/>
<stop offset="0.444709" stop-color="#141B52"/>
<stop offset="1" stop-color="#8F5ED7"/>
</linearGradient>
<linearGradient id="paint7_linear_66_2488" x1="388.837" y1="204.833" x2="392.018" y2="208.019" gradientUnits="userSpaceOnUse">
<stop stop-color="#2E6AE0"/>
<stop offset="0.444709" stop-color="#141B52"/>
<stop offset="1" stop-color="#8F5ED7"/>
</linearGradient>
<linearGradient id="paint8_linear_66_2488" x1="69.6601" y1="119.35" x2="71.3302" y2="121.023" gradientUnits="userSpaceOnUse">
<stop stop-color="#2E6AE0"/>
<stop offset="0.444709" stop-color="#141B52"/>
<stop offset="1" stop-color="#8F5ED7"/>
</linearGradient>
<linearGradient id="paint9_linear_66_2488" x1="2.3114" y1="148.454" x2="3.98148" y2="150.127" gradientUnits="userSpaceOnUse">
<stop stop-color="#2E6AE0"/>
<stop offset="0.444709" stop-color="#141B52"/>
<stop offset="1" stop-color="#8F5ED7"/>
</linearGradient>
<linearGradient id="paint10_linear_66_2488" x1="118.289" y1="156.774" x2="123.905" y2="161.765" gradientUnits="userSpaceOnUse">
<stop stop-color="#2E6AE0"/>
<stop offset="0.444709" stop-color="#141B52"/>
<stop offset="1" stop-color="#8F5ED7"/>
</linearGradient>
<linearGradient id="paint11_linear_66_2488" x1="16.402" y1="176.794" x2="20.8053" y2="178.217" gradientUnits="userSpaceOnUse">
<stop stop-color="#2E6AE0"/>
<stop offset="0.444709" stop-color="#141B52"/>
<stop offset="1" stop-color="#8F5ED7"/>
</linearGradient>
<linearGradient id="paint12_linear_66_2488" x1="331.522" y1="130.362" x2="335.225" y2="136.142" gradientUnits="userSpaceOnUse">
<stop stop-color="#2E6AE0"/>
<stop offset="0.444709" stop-color="#141B52"/>
<stop offset="1" stop-color="#8F5ED7"/>
</linearGradient>
<linearGradient id="paint13_linear_66_2488" x1="127.157" y1="205.407" x2="129.108" y2="209.381" gradientUnits="userSpaceOnUse">
<stop stop-color="#2E6AE0"/>
<stop offset="0.444709" stop-color="#141B52"/>
<stop offset="1" stop-color="#8F5ED7"/>
</linearGradient>
<linearGradient id="paint14_linear_66_2488" x1="379.032" y1="114.528" x2="380.192" y2="118.436" gradientUnits="userSpaceOnUse">
<stop stop-color="#2E6AE0"/>
<stop offset="0.444709" stop-color="#141B52"/>
<stop offset="1" stop-color="#8F5ED7"/>
</linearGradient>
<linearGradient id="paint15_linear_66_2488" x1="226.311" y1="95.4" x2="227.472" y2="99.3079" gradientUnits="userSpaceOnUse">
<stop stop-color="#2E6AE0"/>
<stop offset="0.444709" stop-color="#141B52"/>
<stop offset="1" stop-color="#8F5ED7"/>
</linearGradient>
</defs>
</svg>
