<svg width="44" height="12" viewBox="0 0 44 12" fill="none" xmlns="http://www.w3.org/2000/svg">
<path d="M27.7268 1.35277C27.7268 1.07124 27.8386 0.801239 28.0377 0.602168C28.2367 0.403097 28.5068 0.29126 28.7883 0.29126C29.0698 0.29126 29.3398 0.403097 29.5389 0.602168C29.7379 0.801239 29.8498 1.07124 29.8498 1.35277C29.8395 1.62744 29.7232 1.88745 29.5253 2.07815C29.3273 2.26884 29.0632 2.37539 28.7883 2.37539C28.5134 2.37539 28.2492 2.26884 28.0513 2.07815C27.8533 1.88745 27.737 1.62744 27.7268 1.35277Z" fill="#6B7070"/>
<path d="M10.3058 7.97165C9.39215 7.97165 8.75642 7.24575 8.75642 6.2079C8.75642 5.17079 9.39213 4.44562 10.3065 4.44562C11.2254 4.44562 11.8677 5.17079 11.8677 6.2079C11.8677 7.26201 11.2394 7.97165 10.3058 7.97165ZM10.3058 2.8955C8.37204 2.8955 6.96827 4.28891 6.96827 6.2079C6.96827 8.12763 8.37278 9.5203 10.3058 9.5203C12.2477 9.5203 13.6566 8.12763 13.6566 6.20864C13.6566 4.28891 12.2477 2.8955 10.3065 2.8955H10.3058ZM25.671 6.37422C25.6037 6.24405 25.5186 6.12389 25.4182 6.01718L25.3591 5.95583L25.4212 5.89669C25.5099 5.80281 25.6008 5.69193 25.688 5.56331L27.3956 3.02634H25.3229L24.0403 5.01112C23.9679 5.11756 23.8215 5.17079 23.602 5.17079H23.31V1.41855C23.31 0.668256 22.8421 0.566245 22.3372 0.566245H21.4723L21.4745 9.42273H23.3107V6.766H23.483C23.6922 6.766 23.8341 6.7904 23.8999 6.90423L24.9126 8.81583C25.1957 9.33476 25.4773 9.42273 26.0081 9.42273H27.4148L26.3666 7.69002L25.6718 6.37422H25.671ZM34.5844 2.88071C33.6501 2.88071 33.0542 3.29615 32.7201 3.64727L32.6093 3.75963L32.5693 3.60662C32.4718 3.23036 32.1406 3.02412 31.6431 3.02412H30.8203L30.8255 9.42051H32.6491V6.47254C32.6491 6.18424 32.6861 5.93439 32.763 5.70598C32.9655 5.01481 33.5318 4.58533 34.2392 4.58533C34.8084 4.58533 35.0309 4.88619 35.0309 5.66236V8.44845C35.0309 9.11078 35.3377 9.42051 36.0007 9.42051H36.8686L36.8656 5.35189C36.8656 3.73598 36.0769 2.88145 34.5844 2.88145V2.88071ZM28.8104 3.02634H27.9463L27.9522 7.97239V9.42273H28.874L28.9065 9.4242L29.3368 9.42273H29.764V9.42051H29.767L29.7707 3.9984C29.7707 3.3442 29.458 3.02708 28.8112 3.02708L28.8104 3.02634ZM17.468 7.97165C16.5543 7.97165 15.9179 7.24575 15.9179 6.2079C15.9179 5.17079 16.5544 4.44562 17.4688 4.44562C18.3854 4.44562 19.03 5.17079 19.03 6.2079C19.03 7.26201 18.4016 7.97165 17.4688 7.97165H17.468ZM17.468 2.8955C15.5327 2.8955 14.1282 4.28891 14.1282 6.2079C14.1282 8.12763 15.5328 9.5203 17.4688 9.5203C19.4077 9.5203 20.8196 8.12763 20.8196 6.20864C20.8196 4.28891 19.4077 2.8955 17.4688 2.8955" fill="#6B7070"/>
<path d="M40.7102 7.68999C39.713 7.68999 39.3582 6.82067 39.3582 6.00532C39.3582 5.64607 39.4491 4.4759 40.6149 4.4759C41.1937 4.4759 41.9647 4.64148 41.9647 6.0652C41.9647 7.40835 41.2824 7.68999 40.7102 7.68999ZM42.9116 3.0093C42.5656 3.0093 42.2995 3.14754 42.1657 3.39961L42.1155 3.49718L42.0312 3.42326C41.737 3.16897 41.2092 2.86664 40.3525 2.86664C38.6471 2.86664 37.4991 4.14769 37.4991 6.05263C37.4991 7.95684 38.687 9.28742 40.3865 9.28742C40.9668 9.28742 41.4258 9.15141 41.7895 8.87642L41.9299 8.77071V8.94812C41.9299 9.80265 41.3777 10.2743 40.3761 10.2743C39.889 10.2743 39.4462 10.156 39.149 10.0481C38.7632 9.93127 38.5355 10.0281 38.3795 10.4162L38.2346 10.774L38.0298 11.2973L38.1563 11.3646C38.7979 11.7046 39.6325 11.9079 40.3865 11.9079C41.9388 11.9079 43.7528 11.1133 43.7528 8.87642L43.7595 3.0093H42.9116Z" fill="#6B7070"/>
<path d="M3.51543 7.89844L2.03109 7.89696V6.12286C2.03109 5.7429 2.1782 5.54627 2.50271 5.50044H3.51543C4.23764 5.50044 4.70481 5.9558 4.70554 6.69279C4.70481 7.44974 4.24946 7.8977 3.51543 7.8977V7.89844ZM2.03109 2.64413C2.03109 2.23535 2.20408 2.04094 2.58329 2.0158H3.34321C3.99446 2.0158 4.38476 2.40537 4.38476 3.05809C4.38476 3.55484 4.11715 4.13512 3.36685 4.13512H2.03109V2.64413ZM5.41078 4.88246L5.14242 4.73166L5.37676 4.53134C5.64953 4.29701 6.10564 3.76995 6.10564 2.86072C6.10564 1.46805 5.02639 0.569169 3.35503 0.569169H1.23052C0.991472 0.577885 0.764952 0.678241 0.597881 0.84944C0.430811 1.02064 0.336009 1.24955 0.33313 1.48875V9.39091H3.39271C5.25034 9.39091 6.44935 8.37967 6.44935 6.81328C6.44935 5.96984 6.06203 5.24911 5.41078 4.88246Z" fill="#6B7070"/>
</svg>
