<svg width="19" height="17" viewBox="0 0 19 17" fill="none" xmlns="http://www.w3.org/2000/svg">
<path d="M17.728 15.2182H17.5223V7.60753C17.5223 6.16931 16.6979 5.34488 15.2596 5.34488H15.0539V3.49363C15.0539 1.50415 13.958 0.408203 11.9685 0.408203H7.03184C5.04235 0.408203 3.94641 1.50415 3.94641 3.49363V5.34488H3.74072C2.30249 5.34488 1.47807 6.16931 1.47807 7.60753V15.2182H1.27237C0.931743 15.2182 0.655289 15.4947 0.655289 15.8353C0.655289 16.176 0.931743 16.4524 1.27237 16.4524H17.728C18.0686 16.4524 18.3451 16.176 18.3451 15.8353C18.3451 15.4947 18.0686 15.2182 17.728 15.2182ZM5.18058 3.49363C5.18058 2.1961 5.73431 1.64237 7.03184 1.64237H11.9685C13.266 1.64237 13.8198 2.1961 13.8198 3.49363V15.2182H11.7628V13.367C11.7628 12.1188 10.7483 11.1043 9.50018 11.1043C8.25202 11.1043 7.23753 12.1188 7.23753 13.367V15.2182H5.18058V3.49363ZM10.5287 15.2182H8.4717V13.367C8.4717 12.8001 8.93328 12.3385 9.50018 12.3385C10.0671 12.3385 10.5287 12.8001 10.5287 13.367V15.2182ZM2.71224 7.60753C2.71224 6.85798 2.99116 6.57906 3.74072 6.57906H3.94641V15.2182H2.71224V7.60753ZM15.0539 15.2182V6.57906H15.2596C16.0092 6.57906 16.2881 6.85798 16.2881 7.60753V15.2182H15.0539ZM6.82614 4.31641C6.82614 3.97578 7.1026 3.69932 7.44323 3.69932H8.26601C8.60664 3.69932 8.88309 3.97578 8.88309 4.31641C8.88309 4.65704 8.60664 4.93349 8.26601 4.93349H7.44323C7.1026 4.93349 6.82614 4.65704 6.82614 4.31641ZM10.1173 4.31641C10.1173 3.97578 10.3937 3.69932 10.7343 3.69932H11.5571C11.8978 3.69932 12.1742 3.97578 12.1742 4.31641C12.1742 4.65704 11.8978 4.93349 11.5571 4.93349H10.7343C10.3937 4.93349 10.1173 4.65704 10.1173 4.31641ZM6.82614 6.78475C6.82614 6.44412 7.1026 6.16767 7.44323 6.16767H8.26601C8.60664 6.16767 8.88309 6.44412 8.88309 6.78475C8.88309 7.12538 8.60664 7.40184 8.26601 7.40184H7.44323C7.1026 7.40184 6.82614 7.12538 6.82614 6.78475ZM10.1173 6.78475C10.1173 6.44412 10.3937 6.16767 10.7343 6.16767H11.5571C11.8978 6.16767 12.1742 6.44412 12.1742 6.78475C12.1742 7.12538 11.8978 7.40184 11.5571 7.40184H10.7343C10.3937 7.40184 10.1173 7.12538 10.1173 6.78475ZM6.82614 9.25309C6.82614 8.91246 7.1026 8.63601 7.44323 8.63601H8.26601C8.60664 8.63601 8.88309 8.91246 8.88309 9.25309C8.88309 9.59372 8.60664 9.87018 8.26601 9.87018H7.44323C7.1026 9.87018 6.82614 9.59372 6.82614 9.25309ZM10.1173 9.25309C10.1173 8.91246 10.3937 8.63601 10.7343 8.63601H11.5571C11.8978 8.63601 12.1742 8.91246 12.1742 9.25309C12.1742 9.59372 11.8978 9.87018 11.5571 9.87018H10.7343C10.3937 9.87018 10.1173 9.59372 10.1173 9.25309Z" fill="white"/>
</svg>
