<svg width="49" height="50" viewBox="0 0 49 50" fill="none" xmlns="http://www.w3.org/2000/svg">
<g clip-path="url(#clip0_259_1533)">
<path d="M21.5464 35.2018H29.6797L31.7101 33.1714C31.9833 32.8982 32.4432 32.9302 32.6618 33.2489C32.756 33.3862 32.8667 33.5155 32.994 33.6339C33.8765 34.455 35.271 34.447 36.1444 33.6162C37.0842 32.7222 37.0983 31.2335 36.1865 30.3218C36.0878 30.2231 35.9823 30.1353 35.8715 30.0583C35.5507 29.8353 35.4996 29.3824 35.7757 29.1059L37.1552 27.7264C37.5186 27.363 37.5186 26.7739 37.1552 26.4105L35.776 25.0311C35.4996 24.7548 35.0465 24.8058 34.8234 25.1268C34.7464 25.2376 34.6585 25.3431 34.5598 25.4418C33.6481 26.3535 32.1594 26.3395 31.2654 25.3996C30.4347 24.5263 30.4266 23.1318 31.2477 22.2494C31.3661 22.1221 31.4955 22.0113 31.6328 21.9171C31.9514 21.6985 31.9834 21.2387 31.7102 20.9655L29.6798 18.9351H21.5464V35.2018Z" fill="#67D360"/>
<path d="M21.5464 18.9351H13.413L11.3826 20.9655C11.1094 21.2387 10.6495 21.2066 10.431 20.888C10.3368 20.7507 10.226 20.6214 10.0987 20.503C9.21623 19.6819 7.82171 19.6899 6.94842 20.5206C6.00857 21.4147 5.99455 22.9033 6.9063 23.8151C7.005 23.9138 7.11046 24.0016 7.22126 24.0786C7.54211 24.3016 7.59323 24.7545 7.3171 25.031L5.9376 26.4105C5.57419 26.7739 5.57419 27.363 5.9376 27.7264L7.31685 29.1058C7.59323 29.3821 8.04634 29.3311 8.26943 29.0101C8.34641 28.8993 8.43426 28.7938 8.53296 28.6951C9.44471 27.7834 10.9334 27.7974 11.8274 28.7373C12.6581 29.6106 12.6662 31.0051 11.8451 31.8875C11.7267 32.0148 11.5973 32.1256 11.46 32.2198C11.1414 32.4384 11.1094 32.8982 11.3826 33.1714L13.413 35.2018H21.5464V18.9351Z" fill="#FFE835"/>
<path d="M27.6494 16.9042C27.3761 16.6309 27.4082 16.1711 27.7268 15.9525C27.8641 15.8583 27.9934 15.7475 28.1118 15.6202C28.9329 14.7378 28.9249 13.3433 28.0942 12.47C27.2001 11.5301 25.7115 11.5161 24.7997 12.4278C24.701 12.5265 24.6132 12.632 24.5362 12.7428C24.3132 13.0637 23.8603 13.1148 23.5838 12.8386L22.2043 11.4591C21.8409 11.0957 21.2518 11.0957 20.8884 11.4591L19.509 12.8384C19.2327 13.1148 19.2837 13.5679 19.6047 13.791C19.7155 13.868 19.821 13.9558 19.9197 14.0545C20.8314 14.9663 20.8174 16.4549 19.8775 17.349C19.0042 18.1797 17.6097 18.1877 16.7273 17.3666C16.6 17.2482 16.4892 17.1189 16.395 16.9816C16.1764 16.663 15.7166 16.6309 15.4434 16.9042L13.413 18.9345L15.4434 20.9649C15.7166 21.2381 15.6846 21.698 15.3659 21.9166C15.2286 22.0107 15.0993 22.1215 14.9809 22.2488C14.1598 23.1313 14.1678 24.5258 14.9986 25.3991C15.8926 26.339 17.3813 26.353 18.293 25.4412C18.3917 25.3425 18.4795 25.2371 18.5565 25.1263C18.7796 24.8054 19.2325 24.7543 19.509 25.0305L21.5463 27.0679L23.5836 25.0306C23.86 24.7543 23.8089 24.3011 23.4879 24.0781C23.3771 24.0011 23.2716 23.9132 23.173 23.8145C22.2612 22.9028 22.2753 21.4141 23.2151 20.5201C24.0885 19.6893 25.483 19.6813 26.3654 20.5024C26.4927 20.6208 26.6034 20.7502 26.6976 20.8875C26.9162 21.2061 27.3761 21.2381 27.6493 20.9649L29.6797 18.9345L27.6494 16.9042Z" fill="#FF6F64"/>
<path d="M15.4433 37.2321C15.7165 37.5053 15.6845 37.9652 15.3659 38.1838C15.2286 38.2779 15.0992 38.3887 14.9808 38.516C14.1597 39.3984 14.1678 40.7929 14.9985 41.6663C15.8925 42.6061 17.3812 42.6202 18.2929 41.7084C18.3916 41.6097 18.4795 41.5043 18.5565 41.3935C18.7794 41.0726 19.2324 41.0215 19.5088 41.2976L20.8883 42.6771C21.2517 43.0405 21.8409 43.0405 22.2043 42.6771L23.5836 41.2979C23.86 41.0215 23.8089 40.5684 23.4879 40.3453C23.3771 40.2683 23.2717 40.1805 23.173 40.0818C22.2612 39.17 22.2753 37.6813 23.2151 36.7873C24.0885 35.9566 25.483 35.9485 26.3654 36.7696C26.4927 36.8881 26.6034 37.0174 26.6976 37.1547C26.9162 37.4733 27.3761 37.5053 27.6493 37.2321L29.6797 35.2017L27.6493 33.1713C27.3761 32.8981 27.4081 32.4382 27.7267 32.2197C27.864 32.1255 27.9933 32.0147 28.1118 31.8874C28.9329 31.005 28.9248 29.6105 28.0941 28.7371C27.2001 27.7973 25.7114 27.7833 24.7996 28.695C24.7009 28.7937 24.6131 28.8992 24.5361 29.01C24.3131 29.3309 23.8601 29.3819 23.5837 29.1058L21.5463 27.0684L19.509 29.1056C19.2327 29.382 19.2837 29.8351 19.6047 30.0582C19.7155 30.1352 19.821 30.223 19.9197 30.3217C20.8314 31.2335 20.8174 32.7222 19.8775 33.6162C19.0042 34.4469 17.6097 34.455 16.7273 33.6339C16.6 33.5154 16.4892 33.3861 16.395 33.2488C16.1764 32.9302 15.7166 32.8982 15.4434 33.1714L13.413 35.2018L15.4433 37.2321Z" fill="#5699FB"/>
<path d="M27.6494 16.9041C27.3762 16.6309 27.4082 16.171 27.7268 15.9525C27.8641 15.8583 27.9935 15.7475 28.1119 15.6202C28.933 14.7378 28.9249 13.3433 28.0942 12.4699C27.2002 11.5301 25.7115 11.5161 24.7998 12.4278C24.7011 12.5265 24.6132 12.632 24.5362 12.7428C24.3133 13.0636 23.8603 13.1147 23.5839 12.8386L22.2044 11.459C22.0227 11.2773 21.7845 11.1865 21.5464 11.1865V27.0679L23.5837 25.0306C23.86 24.7542 23.809 24.3011 23.488 24.078C23.3772 24.001 23.2717 23.9132 23.173 23.8145C22.2613 22.9027 22.2753 21.414 23.2152 20.52C24.0885 19.6893 25.483 19.6812 26.3654 20.5024C26.4927 20.6208 26.6035 20.7501 26.6977 20.8874C26.9163 21.206 27.3761 21.2381 27.6494 20.9648L29.6797 18.9344L27.6494 16.9041Z" fill="#FF2776"/>
<path d="M27.7268 32.2197C27.8641 32.1256 27.9935 32.0148 28.1119 31.8875C28.933 31.0051 28.9249 29.6106 28.0942 28.7372C27.2002 27.7974 25.7115 27.7833 24.7998 28.6951C24.7011 28.7938 24.6132 28.8992 24.5362 29.01C24.3132 29.331 23.8602 29.382 23.5838 29.1058L21.5464 27.0684V42.9497C21.7845 42.9497 22.0227 42.8589 22.2044 42.6772L23.5837 41.2979C23.8601 41.0215 23.809 40.5684 23.4881 40.3454C23.3773 40.2684 23.2718 40.1805 23.1731 40.0818C22.2614 39.1701 22.2754 37.6814 23.2152 36.7874C24.0886 35.9566 25.4831 35.9486 26.3655 36.7697C26.4928 36.8881 26.6035 37.0175 26.6978 37.1548C26.9163 37.4734 27.3762 37.5054 27.6494 37.2322L29.6798 35.2018L27.6494 33.1714C27.3762 32.8982 27.4082 32.4383 27.7268 32.2197Z" fill="#4465F2"/>
</g>
<defs>
<clipPath id="clip0_259_1533">
<rect width="31.7627" height="31.7627" fill="white" transform="translate(5.66504 11.1865)"/>
</clipPath>
</defs>
</svg>
