<svg width="55" height="55" viewBox="0 0 55 55" fill="none" xmlns="http://www.w3.org/2000/svg">
<path fill-rule="evenodd" clip-rule="evenodd" d="M19.1553 11.1763L42.9412 34.9622C40.2954 37.3428 22.8986 43.1683 8.01915 48.4178C7.35753 48.6551 6.61838 48.4898 6.12063 47.9935C5.62288 47.4971 5.45561 46.7579 5.69088 46.0956C10.6765 31.9172 16.8739 14.2036 19.1553 11.1763Z" fill="#4FC8FB"/>
<path fill-rule="evenodd" clip-rule="evenodd" d="M19.1553 11.176C21.3143 9.01632 28.397 12.5924 34.9609 19.1563C41.5248 25.7209 45.1009 32.8029 42.9412 34.9619C40.7823 37.1208 33.7002 33.5448 27.1363 26.9809C20.5724 20.417 16.9963 13.3349 19.1553 11.176Z" fill="#4E2296"/>
<path fill-rule="evenodd" clip-rule="evenodd" d="M14.838 20.7651C19.485 31.2104 30.3131 37.3799 37.3183 37.8124C34.4699 38.9929 30.7918 40.3664 26.716 41.8338C20.981 38.2829 15.4751 32.2025 12.9381 25.795C13.5957 24.0189 14.2328 22.3284 14.838 20.7651Z" fill="#FF5D14"/>
<path fill-rule="evenodd" clip-rule="evenodd" d="M9.78028 34.5127C12.3119 39.089 16.4645 42.3727 20.3629 44.091C18.4678 44.7567 16.5387 45.4319 14.6095 46.1065C12.1167 43.9645 9.88635 41.2554 8.40942 38.375C8.86569 37.0858 9.32333 35.7945 9.78028 34.5127Z" fill="#FF5D14"/>
<path fill-rule="evenodd" clip-rule="evenodd" d="M11.1063 38.8315L18.3468 21.9175C18.4577 21.6591 18.338 21.3585 18.0789 21.2484C17.8205 21.1375 17.52 21.2572 17.4091 21.5163L10.1686 38.4296C10.0578 38.6887 10.1781 38.9885 10.4365 39.0994C10.6956 39.2102 10.9955 39.0899 11.1063 38.8315Z" fill="white"/>
<path fill-rule="evenodd" clip-rule="evenodd" d="M45.4932 23.2174C45.5945 22.9515 45.8495 22.7754 46.1345 22.7754C46.4187 22.7754 46.6744 22.9515 46.775 23.2174C47.2768 24.5379 47.8902 26.1515 47.8902 26.1515C48.0017 26.4446 48.1737 26.7105 48.3961 26.9321C48.6178 27.1538 48.8836 27.3259 49.1767 27.4374C49.1767 27.4374 50.7903 28.0507 52.1102 28.5526C52.3767 28.6539 52.5522 28.9089 52.5522 29.1938C52.5522 29.4787 52.3767 29.7337 52.1102 29.835C50.7903 30.3368 49.1767 30.9495 49.1767 30.9495C48.8836 31.061 48.6178 31.2337 48.3961 31.4554C48.1737 31.6771 48.0017 31.943 47.8902 32.236C47.8902 32.236 47.2768 33.8496 46.775 35.1695C46.6744 35.4361 46.4187 35.6115 46.1345 35.6115C45.8495 35.6115 45.5945 35.4361 45.4932 35.1695C44.9914 33.8496 44.378 32.236 44.378 32.236C44.2665 31.943 44.0945 31.6771 43.8728 31.4554C43.6511 31.2337 43.3846 31.061 43.0915 30.9495C43.0915 30.9495 41.4779 30.3368 40.1581 29.835C39.8922 29.7337 39.7161 29.4787 39.7161 29.1938C39.7161 28.9089 39.8922 28.6539 40.1581 28.5526C41.4779 28.0507 43.0915 27.4374 43.0915 27.4374C43.3846 27.3259 43.6511 27.1538 43.8728 26.9321C44.0945 26.7105 44.2665 26.4446 44.378 26.1515C44.378 26.1515 44.9914 24.5379 45.4932 23.2174Z" fill="#FDBE00"/>
<path fill-rule="evenodd" clip-rule="evenodd" d="M9.03164 19.6608C9.10168 19.4772 9.27779 19.3555 9.47431 19.3555C9.67151 19.3555 9.84762 19.4772 9.91766 19.6608C10.2679 20.5815 10.6976 21.7116 10.6976 21.7116C10.7751 21.9156 10.8948 22.1013 11.0492 22.2556C11.2035 22.41 11.3892 22.5296 11.5931 22.6072C11.5931 22.6072 12.7233 23.0369 13.644 23.3871C13.8276 23.4565 13.9493 23.6333 13.9493 23.8298C13.9493 24.027 13.8276 24.2031 13.644 24.2731C12.7233 24.6233 11.5931 25.0531 11.5931 25.0531C11.3892 25.1306 11.2035 25.2503 11.0492 25.4046C10.8948 25.559 10.7751 25.7446 10.6976 25.9486C10.6976 25.9486 10.2679 27.0788 9.91766 27.9995C9.84762 28.1831 9.67151 28.3048 9.47431 28.3048C9.27779 28.3048 9.10168 28.1831 9.03164 27.9995C8.68145 27.0788 8.25169 25.9486 8.25169 25.9486C8.17418 25.7446 8.0545 25.559 7.90014 25.4046C7.74579 25.2503 7.56015 25.1306 7.35615 25.0531C7.35615 25.0531 6.22602 24.6233 5.30531 24.2731C5.12172 24.2031 5 24.027 5 23.8298C5 23.6333 5.12172 23.4565 5.30531 23.3871C6.22602 23.0369 7.35615 22.6072 7.35615 22.6072C7.56015 22.5296 7.74579 22.41 7.90014 22.2556C8.0545 22.1013 8.17418 21.9156 8.25169 21.7116C8.25169 21.7116 8.68145 20.5815 9.03164 19.6608Z" fill="#FDBE00"/>
<path fill-rule="evenodd" clip-rule="evenodd" d="M23.6288 3.22032C23.6792 3.08772 23.8063 3 23.9484 3C24.0899 3 24.217 3.08772 24.2673 3.22032C24.5196 3.8833 24.829 4.69793 24.829 4.69793C24.8848 4.8448 24.9718 4.97876 25.0827 5.0896C25.1942 5.20112 25.3274 5.28747 25.4743 5.34323C25.4743 5.34323 26.2889 5.65263 26.9526 5.9049C27.0852 5.95522 27.1729 6.08238 27.1729 6.2245C27.1729 6.36593 27.0852 6.49309 26.9526 6.54341C26.2889 6.79568 25.4743 7.10508 25.4743 7.10508C25.3274 7.16152 25.1942 7.24787 25.0827 7.35871C24.9718 7.47023 24.8848 7.60351 24.829 7.75106C24.829 7.75106 24.5196 8.56501 24.2673 9.22867C24.217 9.36127 24.0899 9.44899 23.9484 9.44899C23.8063 9.44899 23.6792 9.36127 23.6288 9.22867C23.3766 8.56501 23.0672 7.75106 23.0672 7.75106C23.0114 7.60351 22.9251 7.47023 22.8135 7.35871C22.702 7.24787 22.5687 7.16152 22.4219 7.10508C22.4219 7.10508 21.6072 6.79568 20.9436 6.54341C20.811 6.49309 20.7239 6.36593 20.7239 6.2245C20.7239 6.08238 20.811 5.95522 20.9436 5.9049C21.6072 5.65263 22.4219 5.34323 22.4219 5.34323C22.5687 5.28747 22.702 5.20112 22.8135 5.0896C22.9251 4.97876 23.0114 4.8448 23.0672 4.69793C23.0672 4.69793 23.3766 3.8833 23.6288 3.22032Z" fill="#FF5D14"/>
<path fill-rule="evenodd" clip-rule="evenodd" d="M11.26 47.9796C11.26 47.9796 39.2 37.8675 41.926 35.8881C42.1538 35.7222 42.2048 35.4033 42.0396 35.1755C41.8737 34.9477 41.5547 34.8974 41.3269 35.0626C38.624 37.025 10.9139 47.0202 10.9139 47.0202C10.6487 47.116 10.5113 47.4084 10.6072 47.6736C10.7031 47.9381 10.9955 48.0755 11.26 47.9796Z" fill="#575C69"/>
<path fill-rule="evenodd" clip-rule="evenodd" d="M33.4302 29.0605C33.8328 27.6808 34.9568 23.9517 37.0845 21.4827C37.2681 21.2699 37.2443 20.9475 37.0314 20.764C36.8179 20.5797 36.4956 20.6042 36.312 20.817C34.0749 23.4125 32.8747 27.3238 32.451 28.7742C32.3722 29.0448 32.5279 29.3277 32.7978 29.4066C33.0678 29.4855 33.3513 29.3304 33.4302 29.0605Z" fill="#FDBE00"/>
<path fill-rule="evenodd" clip-rule="evenodd" d="M40.0607 18.3767C38.5858 18.7052 37.3408 19.6232 36.312 20.8172C36.1284 21.0307 36.1522 21.3531 36.365 21.5366C36.5785 21.7202 36.9008 21.6964 37.0844 21.4829C37.7991 20.6533 38.63 19.9666 39.5922 19.5864C39.5065 20.0128 39.5181 20.4208 39.6418 20.7955C39.8322 21.3741 40.2715 21.7046 40.8407 21.8297C41.3024 21.9317 41.8606 21.8868 42.4005 21.7338C43.0282 21.5564 43.6272 21.2354 44.0142 20.875C44.3542 20.5588 44.5371 20.2005 44.55 19.8693C44.5629 19.5354 44.4317 19.1961 44.0427 18.9085C43.6714 18.6338 42.9806 18.3856 41.8362 18.2734C41.6757 18.2578 41.5172 18.2489 41.3608 18.2462C41.4547 18.119 41.5546 17.9919 41.66 17.8647C42.9704 16.2824 45.0777 14.7449 46.4444 13.9956C46.6913 13.8603 46.7817 13.5502 46.6464 13.3034C46.5111 13.0565 46.201 12.9661 45.9542 13.1014C44.2528 14.0337 41.4853 16.1199 40.2368 18.0823C40.1743 18.1809 40.1158 18.2788 40.0607 18.3767ZM40.7427 19.2961L40.7217 19.3471C40.5612 19.7496 40.4973 20.1325 40.6108 20.4772C40.6795 20.6867 40.8536 20.788 41.0603 20.8335C41.3751 20.9029 41.7546 20.8567 42.1231 20.7526C42.5862 20.6214 43.0336 20.3943 43.3199 20.1284C43.4287 20.0271 43.5266 19.936 43.5307 19.8292C43.532 19.802 43.5035 19.785 43.4763 19.7605C43.4328 19.7224 43.3784 19.6871 43.3131 19.6524C42.9955 19.4844 42.4869 19.362 41.7369 19.2886C41.3928 19.2546 41.0617 19.2587 40.7427 19.2961Z" fill="#575C69"/>
<path fill-rule="evenodd" clip-rule="evenodd" d="M29.759 13.3037C29.5652 12.6577 29.2681 12.1586 28.9451 11.8614C28.5378 11.4861 28.0761 11.382 27.6348 11.5439C27.275 11.6751 26.8902 12.0233 26.593 12.7005C26.2285 13.5308 26.1095 14.1557 26.1415 14.5929C26.1714 15.0091 26.3292 15.3001 26.5481 15.4946C26.8793 15.7884 27.4104 15.8808 28.0495 15.6891C28.3365 15.6034 28.6527 15.4592 28.9791 15.2627C28.9199 16.8029 28.2603 18.6946 26.5067 20.332C26.3013 20.5238 26.2897 20.8468 26.4822 21.0528C26.6739 21.2582 26.9969 21.2697 27.203 21.0773C29.4966 18.936 30.1208 16.4017 29.978 14.5188C30.1323 14.3808 30.2847 14.2332 30.4329 14.0761C31.593 12.8501 32.53 11.0652 32.396 9.11633C32.3763 8.8355 32.1329 8.62266 31.852 8.64238C31.5712 8.66142 31.359 8.90553 31.3781 9.18637C31.4726 10.5565 30.9218 11.8254 30.1725 12.81C30.0399 12.9834 29.9018 13.1486 29.759 13.3037ZM28.9022 14.0891C28.8342 13.7083 28.7261 13.3717 28.5901 13.0949C28.4915 12.8923 28.3793 12.7271 28.2549 12.6121C28.1855 12.5482 28.1175 12.4979 28.0427 12.4925C27.9625 12.487 27.8945 12.5455 27.819 12.6278C27.7143 12.742 27.6178 12.9025 27.5273 13.1099C27.2941 13.641 27.1744 14.0585 27.1581 14.3781C27.1492 14.5419 27.1492 14.6643 27.2247 14.7317C27.271 14.7725 27.3396 14.7738 27.4151 14.7731C27.5192 14.7711 27.6341 14.7493 27.7565 14.7126C28.106 14.6072 28.5024 14.3923 28.9022 14.0891Z" fill="#FDBE00"/>
<path fill-rule="evenodd" clip-rule="evenodd" d="M45.1492 10.2898C42.757 10.4149 40.4634 11.8504 39.0347 14.0161C38.8797 14.2514 38.945 14.5676 39.1802 14.7226C39.4148 14.8777 39.7317 14.8131 39.8867 14.5778C41.1311 12.6901 43.1174 11.4172 45.2022 11.3084C45.4837 11.2935 45.6999 11.0534 45.685 10.7726C45.67 10.4911 45.43 10.2748 45.1492 10.2898Z" fill="#FDBE00"/>
<path fill-rule="evenodd" clip-rule="evenodd" d="M35.0425 15.8455C37.1015 12.5238 37.9582 8.52751 35.2424 4.86443C35.0751 4.63799 34.7548 4.59107 34.5291 4.75835C34.3026 4.92631 34.2557 5.2459 34.423 5.47165C36.856 8.75327 36.0203 12.332 34.1755 15.3077C34.0272 15.547 34.1014 15.8618 34.34 16.0101C34.5794 16.1583 34.8942 16.0849 35.0425 15.8455Z" fill="#575C69"/>
<path d="M44.2802 8.96C45.2085 8.96 45.9611 8.20742 45.9611 7.27907C45.9611 6.35072 45.2085 5.59814 44.2802 5.59814C43.3518 5.59814 42.5992 6.35072 42.5992 7.27907C42.5992 8.20742 43.3518 8.96 44.2802 8.96Z" fill="#FDBE00"/>
<path d="M12.1569 12.8804C13.0853 12.8804 13.8379 12.1278 13.8379 11.1995C13.8379 10.2711 13.0853 9.51855 12.1569 9.51855C11.2286 9.51855 10.476 10.2711 10.476 11.1995C10.476 12.1278 11.2286 12.8804 12.1569 12.8804Z" fill="#FDBE00"/>
<path d="M38.6593 44.3472C39.5876 44.3472 40.3402 43.5946 40.3402 42.6663C40.3402 41.7379 39.5876 40.9854 38.6593 40.9854C37.7309 40.9854 36.9783 41.7379 36.9783 42.6663C36.9783 43.5946 37.7309 44.3472 38.6593 44.3472Z" fill="#FF5D14"/>
</svg>
