<svg width="25" height="11" viewBox="0 0 25 11" fill="none" xmlns="http://www.w3.org/2000/svg">
<path d="M0.105591 1.44841V2.16834H4.77543V1.44841H0.105591Z" fill="#6B7070"/>
<path d="M0.105591 0.728478H4.77543V0.00854492H0.105591V0.728478Z" fill="#6B7070"/>
<path d="M5.44254 1.44841V2.16834H13.4018C13.3556 1.91357 13.2759 1.67174 13.1679 1.44841H5.44254Z" fill="#6B7070"/>
<path d="M12.6601 0.728478H5.44254V0.00854492H10.9677C11.6219 0.00854492 12.2169 0.281872 12.6601 0.728478Z" fill="#6B7070"/>
<path d="M14.1151 1.44841V2.16834H18.6896L18.499 1.44841H14.1151Z" fill="#6B7070"/>
<path d="M18.3084 0.728478H14.1151V0.00854492H18.1178L18.3084 0.728478Z" fill="#6B7070"/>
<path d="M20.4051 1.44841L20.2145 2.16834H24.789V1.44841H20.4051Z" fill="#6B7070"/>
<path d="M24.789 0.728478H20.5957L20.7863 0.00854492H24.789V0.728478Z" fill="#6B7070"/>
<path d="M23.4548 2.88828H20.0239L19.8333 3.60821H23.4548V2.88828Z" fill="#6B7070"/>
<path d="M23.4548 4.32814H21.4534H19.6427L19.452 5.04807L19.2614 4.32814H17.4507H15.4493V5.04807H17.4507V4.32814L17.6731 5.04807H19.452H21.231L21.4534 4.32814V5.04807H23.4548V4.32814Z" fill="#6B7070"/>
<path d="M23.4548 5.76801H21.4534V6.48794H23.4548V5.76801Z" fill="#6B7070"/>
<path d="M23.4548 7.20787H21.4534V7.92781H23.4548V7.20787Z" fill="#6B7070"/>
<path d="M24.789 8.64774H21.4534V9.36767H24.789V8.64774Z" fill="#6B7070"/>
<path d="M24.789 10.0876H21.4534V10.8075H24.789V10.0876Z" fill="#6B7070"/>
<path d="M0.105591 10.8075H4.77543V10.0876H0.105591V10.8075Z" fill="#6B7070"/>
<path d="M0.105591 9.36767H4.77543V8.64774H0.105591V9.36767Z" fill="#6B7070"/>
<path d="M1.43983 7.92781H3.44119V7.20787H1.43983V7.92781Z" fill="#6B7070"/>
<path d="M1.43983 6.48794H3.44119V5.76801H1.43983V6.48794Z" fill="#6B7070"/>
<path d="M1.43983 5.04807H3.44119V4.32814H1.43983V5.04807Z" fill="#6B7070"/>
<path d="M1.43983 3.60821H3.44119V2.88828H1.43983V3.60821Z" fill="#6B7070"/>
<path d="M6.77678 2.88828V3.60821H8.77814V2.88828H6.77678Z" fill="#6B7070"/>
<path d="M11.1131 2.88828V3.60821H13.2963C13.3738 3.38056 13.4234 3.13887 13.4409 2.88828H11.1131Z" fill="#6B7070"/>
<path d="M15.4493 2.88828V3.60821H19.0708L18.8802 2.88828H15.4493Z" fill="#6B7070"/>
<path d="M12.9258 4.32814H6.77678V5.04807H12.1337C12.4436 4.86986 12.713 4.62335 12.9258 4.32814Z" fill="#6B7070"/>
<path d="M12.1337 5.76801H6.77678V6.48794H12.9258C12.713 6.19274 12.4436 5.94622 12.1337 5.76801Z" fill="#6B7070"/>
<path d="M13.2963 7.20787H10.7795V7.92781H13.4409C13.4234 7.67721 13.3738 7.43553 13.2963 7.20787Z" fill="#6B7070"/>
<path d="M15.4493 7.92781V7.20787H17.4507V7.92781H15.4493Z" fill="#6B7070"/>
<path d="M17.4507 8.64774H14.1151V9.36767H17.4507V8.64774Z" fill="#6B7070"/>
<path d="M19.0073 9.36767L18.7849 8.64774H20.1192L19.8968 9.36767H19.0073Z" fill="#6B7070"/>
<path d="M17.4507 10.0876H14.1151V10.8075H17.4507V10.0876Z" fill="#6B7070"/>
<path d="M10.9677 10.8075C11.6219 10.8075 12.2169 10.5342 12.6601 10.0876H5.44254V10.8075H10.9677Z" fill="#6B7070"/>
<path d="M5.44254 9.36767H13.1679C13.2759 9.14434 13.3556 8.90251 13.4018 8.64774H5.44254V9.36767Z" fill="#6B7070"/>
<path d="M6.77678 7.92781H8.77814V7.20787H6.77678V7.92781Z" fill="#6B7070"/>
<path d="M19.2297 10.0876H19.6744L19.452 10.8075L19.2297 10.0876Z" fill="#6B7070"/>
<path d="M20.3415 7.92781H18.5626L18.3402 7.20787H20.5639L20.3415 7.92781Z" fill="#6B7070"/>
<path d="M20.7863 6.48794L21.0087 5.76801H17.8954L18.1178 6.48794H20.7863Z" fill="#6B7070"/>
<path d="M17.4507 6.48794H15.4493V5.76801H17.4507V6.48794Z" fill="#6B7070"/>
</svg>
