<svg width="51" height="51" viewBox="0 0 51 51" fill="none" xmlns="http://www.w3.org/2000/svg">
<g filter="url(#filter0_d_76_598)">
<rect width="27.2817" height="27.2817" rx="13.6409" transform="matrix(1 0 0 -1 11.7155 33.7842)" fill="white"/>
</g>
<path d="M25.3552 16.1111C26.6691 16.1111 26.8247 16.1169 27.3414 16.1399C27.8216 16.161 28.081 16.2417 28.2538 16.309C28.4824 16.3973 28.6476 16.5049 28.8186 16.6758C28.9915 16.8487 29.0971 17.012 29.1855 17.2406C29.2527 17.4135 29.3334 17.6747 29.3545 18.153C29.3776 18.6716 29.3833 18.8272 29.3833 20.1392C29.3833 21.453 29.3776 21.6086 29.3545 22.1254C29.3334 22.6056 29.2527 22.8649 29.1855 23.0378C29.0971 23.2663 28.9895 23.4315 28.8186 23.6025C28.6457 23.7754 28.4824 23.881 28.2538 23.9694C28.081 24.0366 27.8197 24.1173 27.3414 24.1384C26.8228 24.1615 26.6672 24.1672 25.3552 24.1672C24.0414 24.1672 23.8858 24.1615 23.3691 24.1384C22.8889 24.1173 22.6295 24.0366 22.4567 23.9694C22.2281 23.881 22.0629 23.7735 21.8919 23.6025C21.719 23.4296 21.6134 23.2663 21.525 23.0378C21.4578 22.8649 21.3771 22.6036 21.356 22.1254C21.3329 21.6067 21.3272 21.4511 21.3272 20.1392C21.3272 18.8253 21.3329 18.6697 21.356 18.153C21.3771 17.6728 21.4578 17.4135 21.525 17.2406C21.6134 17.012 21.721 16.8468 21.8919 16.6758C22.0648 16.503 22.2281 16.3973 22.4567 16.309C22.6295 16.2417 22.8908 16.161 23.3691 16.1399C23.8858 16.1169 24.0414 16.1111 25.3552 16.1111ZM25.3552 15.2256C24.0202 15.2256 23.8531 15.2313 23.3287 15.2544C22.8063 15.2774 22.4471 15.362 22.1359 15.483C21.8112 15.6098 21.5366 15.7769 21.2638 16.0516C20.9891 16.3243 20.822 16.599 20.6952 16.9217C20.5742 17.2348 20.4897 17.5921 20.4666 18.1146C20.4436 18.6409 20.4378 18.808 20.4378 20.143C20.4378 21.478 20.4436 21.6451 20.4666 22.1695C20.4897 22.692 20.5742 23.0512 20.6952 23.3624C20.822 23.687 20.9891 23.9617 21.2638 24.2345C21.5366 24.5072 21.8112 24.6763 22.1339 24.8011C22.4471 24.9221 22.8043 25.0067 23.3268 25.0297C23.8512 25.0528 24.0183 25.0585 25.3533 25.0585C26.6883 25.0585 26.8554 25.0528 27.3798 25.0297C27.9023 25.0067 28.2615 24.9221 28.5727 24.8011C28.8954 24.6763 29.1701 24.5072 29.4429 24.2345C29.7156 23.9617 29.8847 23.687 30.0095 23.3643C30.1305 23.0512 30.2151 22.6939 30.2381 22.1715C30.2612 21.6471 30.2669 21.4799 30.2669 20.1449C30.2669 18.8099 30.2612 18.6428 30.2381 18.1184C30.2151 17.5959 30.1305 17.2367 30.0095 16.9256C29.8885 16.599 29.7214 16.3243 29.4467 16.0516C29.1739 15.7788 28.8993 15.6098 28.5766 15.4849C28.2634 15.3639 27.9062 15.2794 27.3837 15.2563C26.8574 15.2313 26.6903 15.2256 25.3552 15.2256Z" fill="#ED267C"/>
<path d="M25.3552 17.6171C23.9607 17.6171 22.8293 18.7485 22.8293 20.143C22.8293 21.5376 23.9607 22.669 25.3552 22.669C26.7498 22.669 27.8812 21.5376 27.8812 20.143C27.8812 18.7485 26.7498 17.6171 25.3552 17.6171ZM25.3552 21.7815C24.4505 21.7815 23.7167 21.0477 23.7167 20.143C23.7167 19.2383 24.4505 18.5045 25.3552 18.5045C26.26 18.5045 26.9938 19.2383 26.9938 20.143C26.9938 21.0477 26.26 21.7815 25.3552 21.7815Z" fill="#ED267C"/>
<path d="M28.5708 17.5172C28.5708 17.8437 28.3057 18.1069 27.9811 18.1069C27.6545 18.1069 27.3914 17.8418 27.3914 17.5172C27.3914 17.1906 27.6565 16.9275 27.9811 16.9275C28.3057 16.9275 28.5708 17.1925 28.5708 17.5172Z" fill="#ED267C"/>
<defs>
<filter id="filter0_d_76_598" x="0.693643" y="0.936972" width="49.3253" height="49.3254" filterUnits="userSpaceOnUse" color-interpolation-filters="sRGB">
<feFlood flood-opacity="0" result="BackgroundImageFix"/>
<feColorMatrix in="SourceAlpha" type="matrix" values="0 0 0 0 0 0 0 0 0 0 0 0 0 0 0 0 0 0 127 0" result="hardAlpha"/>
<feOffset dy="5.45634"/>
<feGaussianBlur stdDeviation="5.51091"/>
<feComposite in2="hardAlpha" operator="out"/>
<feColorMatrix type="matrix" values="0 0 0 0 0 0 0 0 0 0 0 0 0 0 0 0 0 0 0.12 0"/>
<feBlend mode="normal" in2="BackgroundImageFix" result="effect1_dropShadow_76_598"/>
<feBlend mode="normal" in="SourceGraphic" in2="effect1_dropShadow_76_598" result="shape"/>
</filter>
</defs>
</svg>
