<svg width="15" height="15" viewBox="0 0 15 15" fill="none" xmlns="http://www.w3.org/2000/svg">
<path d="M7.73538 1.90235C9.63643 1.90235 9.86155 1.91069 10.6092 1.94404C11.304 1.97461 11.6792 2.09135 11.9294 2.18862C12.2601 2.31647 12.4991 2.47211 12.7465 2.71947C12.9966 2.96961 13.1495 3.20585 13.2773 3.53658C13.3746 3.78672 13.4913 4.16471 13.5219 4.85675C13.5552 5.60717 13.5636 5.83229 13.5636 7.73056C13.5636 9.6316 13.5552 9.85672 13.5219 10.6044C13.4913 11.2992 13.3746 11.6744 13.2773 11.9245C13.1495 12.2553 12.9938 12.4943 12.7465 12.7416C12.4963 12.9918 12.2601 13.1446 11.9294 13.2725C11.6792 13.3698 11.3012 13.4865 10.6092 13.5171C9.85877 13.5504 9.63365 13.5588 7.73538 13.5588C5.83434 13.5588 5.60921 13.5504 4.86158 13.5171C4.16676 13.4865 3.79155 13.3698 3.54141 13.2725C3.21067 13.1446 2.97165 12.989 2.7243 12.7416C2.47416 12.4915 2.3213 12.2553 2.19345 11.9245C2.09617 11.6744 1.97944 11.2964 1.94887 10.6044C1.91552 9.85394 1.90718 9.62882 1.90718 7.73056C1.90718 5.82951 1.91552 5.60439 1.94887 4.85675C1.97944 4.16193 2.09617 3.78672 2.19345 3.53658C2.3213 3.20585 2.47694 2.96683 2.7243 2.71947C2.97443 2.46933 3.21067 2.31647 3.54141 2.18862C3.79155 2.09135 4.16953 1.97461 4.86158 1.94404C5.60921 1.91069 5.83434 1.90235 7.73538 1.90235ZM7.73538 0.621094C5.80377 0.621094 5.56197 0.629432 4.80322 0.662783C4.04725 0.696135 3.52751 0.818424 3.07727 0.993521C2.60756 1.17695 2.21012 1.41875 1.81546 1.81619C1.41802 2.21086 1.17622 2.6083 0.992788 3.07522C0.817692 3.52825 0.695403 4.0452 0.662051 4.80117C0.628699 5.5627 0.620361 5.8045 0.620361 7.73611C0.620361 9.66773 0.628699 9.90953 0.662051 10.6683C0.695403 11.4243 0.817692 11.944 0.992788 12.3942C1.17622 12.8639 1.41802 13.2614 1.81546 13.656C2.21012 14.0507 2.60756 14.2953 3.07449 14.4759C3.52751 14.651 4.04447 14.7733 4.80044 14.8067C5.55919 14.84 5.80099 14.8484 7.7326 14.8484C9.66422 14.8484 9.90602 14.84 10.6648 14.8067C11.4207 14.7733 11.9405 14.651 12.3907 14.4759C12.8576 14.2953 13.2551 14.0507 13.6497 13.656C14.0444 13.2614 14.289 12.8639 14.4696 12.397C14.6447 11.944 14.767 11.427 14.8004 10.6711C14.8337 9.91231 14.8421 9.67051 14.8421 7.73889C14.8421 5.80728 14.8337 5.56548 14.8004 4.80673C14.767 4.05076 14.6447 3.53103 14.4696 3.08078C14.2945 2.6083 14.0527 2.21086 13.6553 1.81619C13.2606 1.42153 12.8632 1.17695 12.3963 0.9963C11.9433 0.821204 11.4263 0.698914 10.6703 0.665563C9.9088 0.629432 9.667 0.621094 7.73538 0.621094Z" fill="#ED267C"/>
<path d="M7.73538 4.08133C5.71761 4.08133 4.0806 5.71834 4.0806 7.73611C4.0806 9.75389 5.71761 11.3909 7.73538 11.3909C9.75316 11.3909 11.3902 9.75389 11.3902 7.73611C11.3902 5.71834 9.75316 4.08133 7.73538 4.08133ZM7.73538 10.1069C6.42633 10.1069 5.36463 9.04517 5.36463 7.73611C5.36463 6.42706 6.42633 5.36537 7.73538 5.36537C9.04444 5.36537 10.1061 6.42706 10.1061 7.73611C10.1061 9.04517 9.04444 10.1069 7.73538 10.1069Z" fill="#ED267C"/>
<path d="M12.3879 3.93678C12.3879 4.40926 12.0044 4.79003 11.5347 4.79003C11.0622 4.79003 10.6814 4.40648 10.6814 3.93678C10.6814 3.4643 11.065 3.08353 11.5347 3.08353C12.0044 3.08353 12.3879 3.46708 12.3879 3.93678Z" fill="#ED267C"/>
</svg>
