<svg width="137" height="62" viewBox="0 0 137 62" fill="none" xmlns="http://www.w3.org/2000/svg">
<g filter="url(#filter0_d_69_2616)">
<rect width="117" height="40" transform="translate(3 4)" fill="black"/>
<path d="M21.5388 25.0824V25.3207C21.5575 26.1196 21.644 26.6826 21.7981 27.0097C21.957 27.332 22.2934 27.4932 22.8073 27.4932C23.3166 27.4932 23.653 27.3157 23.8165 26.9606C23.9146 26.7503 23.9637 26.3953 23.9637 25.8953V18.6698H26.1222V25.8603C26.1222 26.7387 25.9704 27.4348 25.6667 27.9488C25.1528 28.8178 24.2253 29.2523 22.8844 29.2523C21.5435 29.2523 20.6441 28.9019 20.1862 28.2011C19.7284 27.4956 19.4994 26.5354 19.4994 25.3207V25.0824H21.5388ZM31.5326 27.5913C32.1166 27.5913 32.5652 27.3834 32.8782 26.9676C33.1913 26.5518 33.3478 25.9607 33.3478 25.1945C33.3478 24.4283 33.1913 23.8396 32.8782 23.4284C32.5652 23.0126 32.1166 22.8047 31.5326 22.8047C30.9486 22.8047 30.4977 23.0126 30.18 23.4284C29.867 23.8396 29.7105 24.4283 29.7105 25.1945C29.7105 25.9607 29.867 26.5518 30.18 26.9676C30.4977 27.3834 30.9486 27.5913 31.5326 27.5913ZM35.4432 25.1945C35.4432 26.3158 35.1209 27.276 34.4761 28.0749C33.8313 28.8692 32.8525 29.2663 31.5396 29.2663C30.2268 29.2663 29.2479 28.8692 28.6032 28.0749C27.9584 27.276 27.636 26.3158 27.636 25.1945C27.636 24.0919 27.9584 23.1364 28.6032 22.3281C29.2479 21.5198 30.2268 21.1157 31.5396 21.1157C32.8525 21.1157 33.8313 21.5198 34.4761 22.3281C35.1209 23.1364 35.4432 24.0919 35.4432 25.1945ZM38.9334 20.4499H36.908V18.6067H38.9334V20.4499ZM36.908 21.361H38.9334V29H36.908V21.361ZM45.1077 21.1788C45.8972 21.1788 46.542 21.3867 47.0419 21.8025C47.5465 22.2137 47.7988 22.8981 47.7988 23.8559V29H45.7524V24.3535C45.7524 23.9517 45.6987 23.6433 45.5912 23.4284C45.395 23.036 45.0212 22.8397 44.4699 22.8397C43.7924 22.8397 43.3275 23.1271 43.0753 23.7017C42.9444 24.0054 42.879 24.3932 42.879 24.8651V29H40.8887V21.375H42.8159V22.4893C43.0729 22.0969 43.3159 21.8142 43.5448 21.6413C43.956 21.333 44.4769 21.1788 45.1077 21.1788ZM55.6341 21.361V25.9654C55.6341 26.3999 55.6855 26.727 55.7883 26.9466C55.9705 27.3344 56.3279 27.5283 56.8605 27.5283C57.5427 27.5283 58.0099 27.2526 58.2622 26.7013C58.393 26.4023 58.4584 26.0075 58.4584 25.5169V21.361H60.4838V29H58.5425V27.9207C58.5238 27.9441 58.4771 28.0142 58.4023 28.131C58.3276 28.2478 58.2388 28.3506 58.136 28.4393C57.823 28.7197 57.5193 28.9112 57.225 29.014C56.9353 29.1168 56.5942 29.1682 56.2017 29.1682C55.0711 29.1682 54.3095 28.7617 53.917 27.9488C53.6975 27.5002 53.5877 26.8391 53.5877 25.9654V21.361H55.6341ZM63.9739 26.5611C64.016 26.9162 64.1071 27.1685 64.2472 27.318C64.4949 27.5843 64.9527 27.7175 65.6209 27.7175C66.0133 27.7175 66.324 27.6591 66.553 27.5423C66.7866 27.4255 66.9034 27.2503 66.9034 27.0167C66.9034 26.7924 66.8099 26.6219 66.623 26.5051C66.4362 26.3883 65.7423 26.1873 64.5416 25.9023C63.6772 25.6874 63.0675 25.4188 62.7124 25.0964C62.3573 24.7787 62.1798 24.3208 62.1798 23.7228C62.1798 23.0173 62.4555 22.4122 63.0068 21.9076C63.5628 21.3984 64.343 21.1437 65.3475 21.1437C66.3007 21.1437 67.0762 21.3353 67.6743 21.7184C68.277 22.0969 68.6227 22.7533 68.7115 23.6877H66.7142C66.6861 23.4308 66.6137 23.2275 66.4969 23.078C66.2773 22.807 65.9035 22.6715 65.3756 22.6715C64.9411 22.6715 64.6304 22.7393 64.4435 22.8748C64.2613 23.0103 64.1702 23.1691 64.1702 23.3513C64.1702 23.5803 64.2683 23.7461 64.4645 23.8489C64.6607 23.9564 65.3546 24.1409 66.546 24.4026C67.3402 24.5895 67.9359 24.8721 68.3331 25.2506C68.7255 25.6337 68.9218 26.1126 68.9218 26.6873C68.9218 27.4442 68.6391 28.0632 68.0738 28.5445C67.5131 29.021 66.6441 29.2593 65.4667 29.2593C64.2659 29.2593 63.3782 29.007 62.8035 28.5024C62.2335 27.9931 61.9485 27.346 61.9485 26.5611H63.9739ZM78.6142 21.1648C79.0861 21.1648 79.5136 21.2465 79.8967 21.41C80.2845 21.5736 80.6022 21.8235 80.8498 22.1599C81.0601 22.4449 81.1886 22.7393 81.2353 23.043C81.282 23.342 81.3054 23.8326 81.3054 24.5147V29H79.266V24.3535C79.266 23.9424 79.1959 23.6106 79.0557 23.3583C78.8735 23.0033 78.5278 22.8257 78.0185 22.8257C77.4905 22.8257 77.0887 23.0033 76.8131 23.3583C76.5421 23.7088 76.4066 24.211 76.4066 24.8651V29H74.4162V18.7048H76.4066V22.3562C76.6963 21.9123 77.0303 21.6039 77.4088 21.4311C77.7919 21.2535 78.1937 21.1648 78.6142 21.1648ZM86.1901 22.8047C85.7276 22.8047 85.3678 22.9495 85.1109 23.2392C84.8586 23.5289 84.6997 23.9213 84.6343 24.4166H87.739C87.7063 23.8886 87.5451 23.4892 87.2554 23.2182C86.9704 22.9425 86.6153 22.8047 86.1901 22.8047ZM86.1901 21.1577C86.8256 21.1577 87.3979 21.2769 87.9072 21.5152C88.4164 21.7534 88.8369 22.1296 89.1687 22.6435C89.4677 23.0967 89.6616 23.6223 89.7503 24.2204C89.8017 24.5708 89.8228 25.0754 89.8134 25.7341H84.5852C84.6133 26.5004 84.8539 27.0377 85.3071 27.346C85.5828 27.5376 85.9145 27.6334 86.3023 27.6334C86.7134 27.6334 87.0475 27.5166 87.3045 27.283C87.4446 27.1568 87.5684 26.9816 87.6759 26.7574H89.7153C89.6639 27.2106 89.428 27.6708 89.0075 28.138C88.3534 28.8809 87.4376 29.2523 86.2602 29.2523C85.2884 29.2523 84.4311 28.9393 83.6882 28.3132C82.9453 27.6871 82.5739 26.6686 82.5739 25.2576C82.5739 23.9354 82.9079 22.9215 83.5761 22.216C84.2488 21.5105 85.1202 21.1577 86.1901 21.1577ZM95.3149 21.1788C95.3523 21.1788 95.3827 21.1811 95.406 21.1858C95.4341 21.1858 95.4925 21.1881 95.5812 21.1928V23.2392C95.4551 23.2252 95.3429 23.2158 95.2448 23.2112C95.1467 23.2065 95.0673 23.2042 95.0066 23.2042C94.2029 23.2042 93.6633 23.4658 93.3876 23.9891C93.2335 24.2834 93.1564 24.7366 93.1564 25.3487V29H91.145V21.361H93.0512V22.6926C93.3596 22.1833 93.6283 21.8352 93.8572 21.6483C94.231 21.3353 94.7169 21.1788 95.3149 21.1788ZM99.7722 22.8047C99.3096 22.8047 98.9499 22.9495 98.6929 23.2392C98.4406 23.5289 98.2817 23.9213 98.2163 24.4166H101.321C101.288 23.8886 101.127 23.4892 100.837 23.2182C100.552 22.9425 100.197 22.8047 99.7722 22.8047ZM99.7722 21.1577C100.408 21.1577 100.98 21.2769 101.489 21.5152C101.998 21.7534 102.419 22.1296 102.751 22.6435C103.05 23.0967 103.244 23.6223 103.332 24.2204C103.384 24.5708 103.405 25.0754 103.395 25.7341H98.1673C98.1953 26.5004 98.4359 27.0377 98.8891 27.346C99.1648 27.5376 99.4965 27.6334 99.8843 27.6334C100.295 27.6334 100.63 27.5166 100.886 27.283C101.027 27.1568 101.15 26.9816 101.258 26.7574H103.297C103.246 27.2106 103.01 27.6708 102.589 28.138C101.935 28.8809 101.02 29.2523 99.8423 29.2523C98.8704 29.2523 98.0131 28.9393 97.2702 28.3132C96.5273 27.6871 96.1559 26.6686 96.1559 25.2576C96.1559 23.9354 96.49 22.9215 97.1581 22.216C97.8309 21.5105 98.7022 21.1577 99.7722 21.1577Z" fill="white"/>
</g>
<path d="M23.2193 57L22.9451 40.422L41.2258 42.6481L23.2193 57Z" fill="black"/>
<defs>
<filter id="filter0_d_69_2616" x="0.3" y="0.3" width="136.4" height="59.4" filterUnits="userSpaceOnUse" color-interpolation-filters="sRGB">
<feFlood flood-opacity="0" result="BackgroundImageFix"/>
<feColorMatrix in="SourceAlpha" type="matrix" values="0 0 0 0 0 0 0 0 0 0 0 0 0 0 0 0 0 0 127 0" result="hardAlpha"/>
<feOffset dx="7" dy="6"/>
<feGaussianBlur stdDeviation="4.85"/>
<feComposite in2="hardAlpha" operator="out"/>
<feColorMatrix type="matrix" values="0 0 0 0 0 0 0 0 0 0 0 0 0 0 0 0 0 0 0.25 0"/>
<feBlend mode="normal" in2="BackgroundImageFix" result="effect1_dropShadow_69_2616"/>
<feBlend mode="normal" in="SourceGraphic" in2="effect1_dropShadow_69_2616" result="shape"/>
</filter>
</defs>
</svg>
