<svg width="15" height="16" viewBox="0 0 15 16" fill="none" xmlns="http://www.w3.org/2000/svg">
<g clip-path="url(#clip0_66_2566)">
<path d="M6.12301 8.61212C6.38597 8.96366 6.72145 9.25454 7.1067 9.46502C7.49196 9.6755 7.91798 9.80067 8.35586 9.83203C8.79375 9.86339 9.23325 9.80021 9.64457 9.64678C10.0559 9.49334 10.4294 9.25324 10.7398 8.94276L12.5767 7.10586C13.1344 6.52845 13.4429 5.75511 13.436 4.95239C13.429 4.14967 13.107 3.3818 12.5394 2.81418C11.9718 2.24655 11.2039 1.92457 10.4012 1.9176C9.59845 1.91062 8.82511 2.2192 8.2477 2.77688L7.19454 3.82392M8.57222 7.38752C8.30926 7.03598 7.97378 6.7451 7.58853 6.53462C7.20327 6.32413 6.77725 6.19897 6.33937 6.16761C5.90148 6.13625 5.46198 6.19943 5.05066 6.35286C4.63934 6.50629 4.26583 6.74639 3.95546 7.05687L2.11856 8.89378C1.56088 9.47119 1.2523 10.2445 1.25927 11.0472C1.26625 11.85 1.58822 12.6178 2.15585 13.1855C2.72348 13.7531 3.49134 14.0751 4.29406 14.082C5.09678 14.089 5.87012 13.7804 6.44753 13.2228L7.49457 12.1757" stroke="white" stroke-width="2" stroke-linecap="round" stroke-linejoin="round"/>
</g>
<defs>
<clipPath id="clip0_66_2566">
<rect width="14.6952" height="14.6952" fill="white" transform="translate(0 0.652344)"/>
</clipPath>
</defs>
</svg>
