<svg width="18" height="18" viewBox="0 0 18 18" fill="none" xmlns="http://www.w3.org/2000/svg">
<path fill-rule="evenodd" clip-rule="evenodd" d="M3.16661 16.5H14.8333C15.7537 16.5 16.4999 15.7538 16.4999 14.8333V3.16667C16.4999 2.24619 15.7537 1.5 14.8333 1.5H3.16661C2.24613 1.5 1.49994 2.24619 1.49994 3.16667V14.8333C1.49994 15.7538 2.24613 16.5 3.16661 16.5Z" fill="#0B65C2"/>
<path fill-rule="evenodd" clip-rule="evenodd" d="M14.2499 14.25H12.0925V10.5754C12.0925 9.56796 11.7097 9.00495 10.9123 9.00495C10.0448 9.00495 9.59159 9.59085 9.59159 10.5754V14.25H7.51244V7.25H9.59159V8.1929C9.59159 8.1929 10.2167 7.03614 11.7022 7.03614C13.187 7.03614 14.2499 7.94283 14.2499 9.81803V14.25ZM5.03202 6.33341C4.32382 6.33341 3.74994 5.75503 3.74994 5.0417C3.74994 4.32838 4.32382 3.75 5.03202 3.75C5.74022 3.75 6.31376 4.32838 6.31376 5.0417C6.31376 5.75503 5.74022 6.33341 5.03202 6.33341ZM3.95843 14.25H6.12645V7.25H3.95843V14.25Z" fill="white"/>
</svg>
