<svg width="133" height="32" viewBox="0 0 133 32" fill="none" xmlns="http://www.w3.org/2000/svg">
<path d="M14.1015 25.6201V17.0806H6.6262V25.6201H2.6679V6.49051H6.6262V13.7842H14.1015V6.49051H18.0728V25.6201H14.1015ZM33.7113 21.4672C33.6162 22.3064 33.1792 23.1586 32.4006 24.0238C31.1893 25.3995 29.4935 26.0873 27.3132 26.0873C25.5135 26.0873 23.9259 25.5076 22.5502 24.3483C21.1746 23.1889 20.4867 21.3028 20.4867 18.6899C20.4867 16.2413 21.1053 14.3638 22.3426 13.0574C23.5885 11.7509 25.2021 11.0977 27.1834 11.0977C28.3601 11.0977 29.4199 11.3183 30.363 11.7596C31.3061 12.2008 32.0848 12.8973 32.699 13.8491C33.2528 14.6883 33.6118 15.6616 33.7762 16.7691C33.8714 17.418 33.9103 18.3524 33.893 19.5724H24.2114C24.2633 20.9913 24.7089 21.9863 25.5482 22.5573C26.0586 22.912 26.6729 23.0894 27.391 23.0894C28.1524 23.0894 28.771 22.8731 29.2469 22.4405C29.5065 22.2069 29.7357 21.8824 29.9347 21.4672H33.7113ZM30.0515 17.1325C29.991 16.1548 29.6925 15.4151 29.156 14.9132C28.6283 14.4028 27.9707 14.1475 27.1834 14.1475C26.3268 14.1475 25.6606 14.4158 25.1848 14.9522C24.7176 15.4886 24.4234 16.2154 24.3023 17.1325H30.0515ZM36.4756 6.49051H40.1744V25.6201H36.4756V6.49051ZM43.8731 6.49051H47.5719V25.6201H43.8731V6.49051ZM62.9897 13.265C64.1837 14.7618 64.7807 16.5312 64.7807 18.5731C64.7807 20.6495 64.1837 22.4275 62.9897 23.907C61.7958 25.3779 59.9832 26.1133 57.552 26.1133C55.1207 26.1133 53.3081 25.3779 52.1142 23.907C50.9202 22.4275 50.3232 20.6495 50.3232 18.5731C50.3232 16.5312 50.9202 14.7618 52.1142 13.265C53.3081 11.7682 55.1207 11.0198 57.552 11.0198C59.9832 11.0198 61.7958 11.7682 62.9897 13.265ZM57.539 14.1475C56.4575 14.1475 55.6226 14.5326 55.0342 15.3026C54.4545 16.064 54.1647 17.1541 54.1647 18.5731C54.1647 19.992 54.4545 21.0865 55.0342 21.8565C55.6226 22.6265 56.4575 23.0115 57.539 23.0115C58.6205 23.0115 59.4511 22.6265 60.0308 21.8565C60.6104 21.0865 60.9003 19.992 60.9003 18.5731C60.9003 17.1541 60.6104 16.064 60.0308 15.3026C59.4511 14.5326 58.6205 14.1475 57.539 14.1475Z" fill="#180D26"/>
<path d="M89.7115 6.49051H93.4102V25.6201H89.7115V6.49051ZM95.6424 11.4741H99.7954L102.741 21.9084L105.752 11.4741H109.724L104.623 25.6201H100.717L95.6424 11.4741ZM115.629 11.4741V25.6201H111.878V11.4741H115.629ZM115.629 6.37371V9.78693H111.878V6.37371H115.629ZM131.332 21.4672C131.237 22.3064 130.8 23.1586 130.021 24.0238C128.81 25.3995 127.114 26.0873 124.934 26.0873C123.134 26.0873 121.547 25.5076 120.171 24.3483C118.795 23.1889 118.107 21.3028 118.107 18.6899C118.107 16.2413 118.726 14.3638 119.963 13.0574C121.209 11.7509 122.823 11.0977 124.804 11.0977C125.981 11.0977 127.041 11.3183 127.984 11.7596C128.927 12.2008 129.705 12.8973 130.32 13.8491C130.873 14.6883 131.233 15.6616 131.397 16.7691C131.492 17.418 131.531 18.3524 131.514 19.5724H121.832C121.884 20.9913 122.33 21.9863 123.169 22.5573C123.679 22.912 124.294 23.0894 125.012 23.0894C125.773 23.0894 126.392 22.8731 126.868 22.4405C127.127 22.2069 127.356 21.8824 127.555 21.4672H131.332ZM127.672 17.1325C127.612 16.1548 127.313 15.4151 126.777 14.9132C126.249 14.4028 125.591 14.1475 124.804 14.1475C123.948 14.1475 123.281 14.4158 122.805 14.9522C122.338 15.4886 122.044 16.2154 121.923 17.1325H127.672Z" fill="black"/>
<path d="M80.3537 7.89455L87.3668 27.2784" stroke="black" stroke-width="3.94935"/>
<circle cx="76.5057" cy="22.3416" r="2.96201" fill="black"/>
<rect x="79.4678" y="25.3037" width="13.8227" height="3.94935" fill="#FFFDFE"/>
</svg>
