<svg width="23" height="19" viewBox="0 0 23 19" fill="none" xmlns="http://www.w3.org/2000/svg">
<path d="M20.8334 15.3781L14.2747 9.45411M8.63279 9.45411L2.07409 15.3781M1.58038 4.51743L9.6419 10.1605C10.2947 10.6175 10.6211 10.8459 10.9761 10.9344C11.2897 11.0126 11.6177 11.0126 11.9314 10.9344C12.2864 10.8459 12.6128 10.6175 13.2656 10.1605L21.3271 4.51743M6.3196 17.3528H16.5879C18.2468 17.3528 19.0762 17.3528 19.7098 17.03C20.2672 16.746 20.7203 16.2929 21.0043 15.7355C21.3271 15.1019 21.3271 14.2725 21.3271 12.6136V6.29463C21.3271 4.63575 21.3271 3.80631 21.0043 3.1727C20.7203 2.61537 20.2672 2.16224 19.7098 1.87826C19.0762 1.55542 18.2468 1.55542 16.5879 1.55542H6.3196C4.66072 1.55542 3.83128 1.55542 3.19767 1.87826C2.64033 2.16224 2.1872 2.61537 1.90322 3.1727C1.58038 3.80631 1.58038 4.63575 1.58038 6.29463V12.6136C1.58038 14.2725 1.58038 15.1019 1.90322 15.7355C2.1872 16.2929 2.64033 16.746 3.19767 17.03C3.83128 17.3528 4.66072 17.3528 6.3196 17.3528Z" stroke="#4E2296" stroke-width="1.97467" stroke-linecap="round" stroke-linejoin="round"/>
</svg>
