<svg width="73" height="21" viewBox="0 0 73 21" fill="none" xmlns="http://www.w3.org/2000/svg">
<g clip-path="url(#clip0_76_638)">
<path d="M1.55446 14.917C1.28777 14.9176 1.0257 14.8474 0.795036 14.7136C0.564367 14.5797 0.373365 14.387 0.241541 14.1552C0.111734 13.925 0.0469963 13.6638 0.0542616 13.3996C0.061527 13.1355 0.140522 12.8782 0.282784 12.6555L2.98653 8.40973C3.12491 8.18154 3.32138 7.99417 3.55587 7.86676C3.79036 7.73935 4.05447 7.67647 4.32122 7.68453C4.58776 7.69091 4.84782 7.768 5.07479 7.90791C5.30175 8.04781 5.48747 8.2455 5.61294 8.48076C5.86498 8.95735 5.83348 9.53075 5.5316 9.97813L2.82957 14.2239C2.69255 14.4374 2.50384 14.6129 2.28094 14.7341C2.05804 14.8552 1.80816 14.9182 1.55446 14.917Z" fill="#6B7070"/>
<path d="M6.19187 14.9171C5.64653 14.9171 5.14474 14.6255 4.88124 14.157C4.75172 13.9274 4.68713 13.6669 4.6944 13.4034C4.70167 13.1399 4.78051 12.8834 4.92248 12.6613L7.62107 8.42525C7.75742 8.19385 7.95318 8.00315 8.18807 7.87291C8.42296 7.74268 8.68842 7.67765 8.9569 7.68458C9.50682 7.69661 10.0052 8.00422 10.2572 8.4854C10.5075 8.96657 10.4709 9.54341 10.1598 9.98964L7.46182 14.2257C7.32522 14.4383 7.13728 14.6131 6.91533 14.7339C6.69338 14.8548 6.44458 14.9178 6.19187 14.9171Z" fill="#6B7070"/>
<path d="M10.726 14.9526C11.4947 14.9526 12.1179 14.3424 12.1179 13.5898C12.1179 12.8372 11.4947 12.2271 10.726 12.2271C9.95719 12.2271 9.33398 12.8372 9.33398 13.5898C9.33398 14.3424 9.95719 14.9526 10.726 14.9526Z" fill="#6B7070"/>
<path d="M71.1972 12.3062C71.6176 12.3062 71.8691 12.6052 71.8691 13.0949V14.7733H72.4402V13.0566C72.4402 12.2237 72.0478 11.7408 71.31 11.7408C71.0213 11.7408 70.563 11.8198 70.2898 12.3508C70.2263 12.1942 70.1216 12.0577 69.9867 11.9558C69.8519 11.854 69.692 11.7905 69.5239 11.7723C69.4182 11.7529 69.3105 11.7466 69.2032 11.7534C68.9683 11.7723 68.5501 11.9184 68.3938 12.2495V11.8044H67.8221V14.7733H68.3938V13.1711C68.3938 12.5479 68.8016 12.3062 69.21 12.3062C69.5927 12.3062 69.8442 12.5989 69.8442 13.0886V14.7733H70.4124V13.1711C70.4124 12.6751 70.7103 12.3004 71.1972 12.3062ZM65.7238 14.2773C65.985 14.283 66.2371 14.1787 66.4198 13.9897C66.6031 13.8007 66.7005 13.5435 66.6907 13.2794C66.6907 12.6814 66.2508 12.3062 65.7238 12.3062C65.1962 12.3062 64.7569 12.6814 64.7569 13.2794C64.7466 13.5429 64.8439 13.7995 65.0261 13.988C65.2083 14.177 65.4592 14.2818 65.7192 14.2773H65.7238ZM65.7238 14.834C64.8886 14.834 64.1915 14.2171 64.1915 13.276C64.1915 12.3348 64.8886 11.7373 65.7238 11.7373C66.559 11.7373 67.2618 12.3348 67.2618 13.276C67.2618 14.2171 66.555 14.8369 65.7198 14.8369L65.7238 14.834ZM61.25 13.276L61.2443 13.2794C61.2443 12.3382 61.9598 11.7408 62.8007 11.7373C63.0119 11.7333 63.2217 11.7736 63.4164 11.8557C63.611 11.9378 63.7863 12.0598 63.9309 12.2139L63.4978 12.5828C63.4058 12.4925 63.2969 12.4213 63.1772 12.3733C63.0575 12.3253 62.9296 12.3015 62.8007 12.3033C62.2737 12.3033 61.8154 12.6785 61.8154 13.276C61.8154 13.6798 62.0554 14.0435 62.4237 14.1982C62.7921 14.3529 63.216 14.2669 63.4978 13.9817L63.9372 14.3506C63.7922 14.5063 63.6161 14.6298 63.4203 14.7131C63.2245 14.7964 63.0134 14.8376 62.8007 14.834C61.9661 14.834 61.25 14.2171 61.25 13.276ZM59.421 14.2034C59.4204 14.1515 59.43 14.0999 59.4493 14.0518C59.4686 14.0036 59.4972 13.9597 59.5335 13.9225C59.5698 13.8854 59.613 13.8558 59.6607 13.8354C59.7085 13.8149 59.7597 13.8041 59.8117 13.8035C59.8636 13.8041 59.9148 13.8149 59.9626 13.8354C60.0103 13.8558 60.0535 13.8854 60.0898 13.9225C60.1261 13.9597 60.1547 14.0036 60.174 14.0518C60.1933 14.0999 60.2029 14.1515 60.2023 14.2034C60.1972 14.3039 60.154 14.3987 60.0814 14.4684C60.0088 14.5381 59.9123 14.5775 59.8117 14.5786C59.711 14.5775 59.6145 14.5381 59.5419 14.4684C59.4693 14.3987 59.4261 14.3039 59.421 14.2034Z" fill="#6B7070"/>
<path fill-rule="evenodd" clip-rule="evenodd" d="M60.9834 8.03023H58.9493L57.5235 11.7061L56.1052 8.03023H54.0711L56.544 13.8387L55.0059 17.6789H57.0252L60.9834 8.03023ZM48.6126 11.261C48.6126 12.189 49.4237 12.7996 50.2206 12.7996C51.0036 12.7996 51.7729 12.2313 51.7729 11.2604C51.7729 10.2895 51.0036 9.72064 50.2206 9.72064C49.4237 9.72064 48.6126 10.3318 48.6126 11.2604V11.261ZM51.7729 14.5043V13.7694C51.3605 14.3938 50.3981 14.6298 49.9044 14.6298C48.2695 14.6298 46.6341 13.3409 46.6341 11.2604C46.6341 9.18047 48.2689 7.89161 49.9044 7.89161C50.3162 7.89161 51.2786 8.02908 51.7729 8.75085V8.03252H53.669V14.5055L51.7729 14.5049V14.5043ZM46.0945 14.5043H44.1984V13.7001C43.8816 14.2958 43.1135 14.6429 42.3161 14.6429C40.6669 14.6429 39.2102 13.326 39.2102 11.2868C39.2102 9.20911 40.6669 7.89046 42.3161 7.89046C43.1123 7.89046 43.8828 8.2227 44.1984 8.81901V4.50391H46.0945V14.5043ZM44.1572 11.2461C44.1572 10.2757 43.4566 9.7069 42.6736 9.7069C41.8624 9.7069 41.1888 10.317 41.1888 11.2461C41.1888 12.205 41.8624 12.8122 42.673 12.8122C43.4709 12.8133 44.1572 12.1752 44.1572 11.2461ZM34.5222 11.0788C34.5222 10.0947 35.0309 9.76189 35.704 9.76189C36.3495 9.76189 36.817 10.1915 36.817 11.0507V14.5032H38.7268V10.6354C38.7268 8.79209 37.8194 7.89046 36.3765 7.89046C35.6209 7.89046 34.8653 8.32008 34.5217 8.97196V8.03023H32.613V14.5032H34.5222V11.0788ZM28.7349 14.6143C26.9214 14.6143 25.4085 13.2836 25.4085 11.2455C25.4085 9.20624 26.9197 7.88874 28.7349 7.88874C30.5502 7.88874 32.0745 9.20624 32.0745 11.2455C32.0745 13.2848 30.5485 14.6149 28.7349 14.6149V14.6143ZM28.7349 12.7297C29.5312 12.7297 30.1916 12.1466 30.1916 11.2461C30.1916 10.3725 29.5318 9.77621 28.7349 9.77621C28.5431 9.77321 28.3526 9.80929 28.1752 9.88226C27.9977 9.95524 27.837 10.0636 27.7027 10.2007C27.5677 10.3385 27.4617 10.5021 27.3912 10.6817C27.3206 10.8613 27.2869 11.0532 27.292 11.2461C27.2926 12.1477 27.9519 12.7297 28.7349 12.7297ZM21.9848 9.76246C22.5478 9.76246 23.0428 10.2064 23.0428 11.0513V14.5043H24.9388V10.8279C24.9388 8.87343 23.9885 7.88931 22.4654 7.88931C22.0128 7.88931 21.1605 8.02679 20.5418 9.03955C20.1844 8.29087 19.4975 7.90249 18.4825 7.90249C18.1301 7.9007 17.7846 8.00044 17.4874 8.18979C17.1901 8.37914 16.9537 8.65009 16.8064 8.97024V8.0308H14.8954V14.5038H16.8047V11.0788C16.8047 10.0947 17.3408 9.76189 17.9177 9.76189C18.4676 9.76189 18.9614 10.1915 18.9757 11.0095V14.5038H20.8855V11.0788C20.8855 10.1377 21.3804 9.76303 21.9848 9.76303V9.76246Z" fill="#6B7070"/>
</g>
<defs>
<clipPath id="clip0_76_638">
<rect width="72.6751" height="20.4" fill="white" transform="translate(0.0537109 0.0412598)"/>
</clipPath>
</defs>
</svg>
