<svg width="56" height="16" viewBox="0 0 56 16" fill="none" xmlns="http://www.w3.org/2000/svg">
<path d="M19.8457 12.8207V6.63481H19.9559L24.4587 12.8207H25.8756V3.73662H24.3012V9.90695H24.191L19.6883 3.73662H18.2713V12.8207H19.8457ZM30.3311 12.9609C32.4093 12.9609 33.6846 11.6209 33.6846 9.37717C33.6846 7.149 32.4093 5.7934 30.3311 5.7934C28.2687 5.7934 26.9777 7.149 26.9777 9.37717C26.9934 11.6209 28.2529 12.9609 30.3311 12.9609ZM30.3311 11.6521C29.2291 11.6521 28.5993 10.8263 28.5993 9.37717C28.5993 7.94366 29.2291 7.10225 30.3311 7.10225C31.4332 7.10225 32.0629 7.94366 32.0629 9.37717C32.0629 10.8263 31.4332 11.6521 30.3311 11.6521ZM35.1173 4.25081V5.98038H34.0152V7.22691H35.1173V10.9821C35.1173 12.3221 35.747 12.8519 37.3529 12.8519C37.652 12.8519 37.9512 12.8207 38.1873 12.774V11.5586C37.9984 11.5742 37.8724 11.5898 37.652 11.5898C36.9908 11.5898 36.6916 11.2937 36.6916 10.6081V7.22691H38.1873V5.98038H36.6916V4.25081H35.1173ZM39.1319 12.8207H40.7063V5.93363H39.1319V12.8207ZM39.9191 4.79617C40.4387 4.79617 40.8638 4.37547 40.8638 3.86127C40.8638 3.3315 40.4387 2.9108 39.9191 2.9108C39.3996 2.9108 38.9745 3.3315 38.9745 3.86127C38.9745 4.37547 39.3996 4.79617 39.9191 4.79617ZM45.0201 12.9609C47.0983 12.9609 48.3736 11.6209 48.3736 9.37717C48.3736 7.149 47.0983 5.7934 45.0201 5.7934C42.9577 5.7934 41.6667 7.149 41.6667 9.37717C41.6667 11.6209 42.9262 12.9609 45.0201 12.9609ZM45.0201 11.6521C43.9181 11.6521 43.2883 10.8263 43.2883 9.37717C43.2883 7.94366 43.9181 7.10225 45.0201 7.10225C46.1065 7.10225 46.752 7.94366 46.752 9.37717C46.7362 10.8263 46.1065 11.6521 45.0201 11.6521ZM49.3025 12.8207H50.8768V8.81623C50.8768 7.80343 51.4751 7.16458 52.404 7.16458C53.3644 7.16458 53.8052 7.69436 53.8052 8.73833V12.8207H55.3796V8.36437C55.3796 6.71271 54.5294 5.7934 52.9865 5.7934C51.9474 5.7934 51.2547 6.26085 50.9241 7.03993H50.8139V5.93363H49.2867C49.3025 5.93363 49.3025 12.8207 49.3025 12.8207Z" fill="#6B7070"/>
<path fill-rule="evenodd" clip-rule="evenodd" d="M3.17567 3.1552C3.6339 3.52486 3.79964 3.49568 4.6576 3.43731L12.7399 2.95091C12.9154 2.95091 12.7692 2.77581 12.7107 2.75635L11.3653 1.79327C11.1118 1.59871 10.7608 1.36524 10.1076 1.42361L2.28847 1.99756C2.00573 2.02675 1.94724 2.17267 2.06423 2.27968L3.17567 3.1552ZM3.66315 5.03271V13.5156C3.66315 13.9728 3.88739 14.1381 4.40411 14.109L13.2859 13.5934C13.8026 13.5642 13.8611 13.2529 13.8611 12.8832V4.45876C13.8611 4.08909 13.7149 3.8848 13.4029 3.91399L4.12138 4.45876C3.78014 4.48794 3.66315 4.66304 3.66315 5.03271ZM12.428 5.48993C12.4865 5.74286 12.428 6.00551 12.1745 6.0347L11.7455 6.12225V12.3871C11.375 12.5817 11.0338 12.6984 10.7413 12.6984C10.2831 12.6984 10.1661 12.5525 9.82484 12.1244L7.02673 7.7371V11.9785L7.91394 12.1731C7.91394 12.1731 7.91394 12.6887 7.20222 12.6887L5.23282 12.8054C5.17432 12.6887 5.23282 12.4066 5.42781 12.3482L5.94453 12.2023V6.59892L5.23282 6.54055C5.17432 6.28763 5.32057 5.91796 5.7203 5.88878L7.83594 5.74286L10.751 10.1788V6.25844L10.0101 6.17089C9.95158 5.85959 10.1856 5.62612 10.4683 5.59694L12.428 5.48993ZM1.63525 1.21932L9.77609 0.62591C10.7705 0.538358 11.0338 0.596726 11.6577 1.05394L14.2511 2.87309C14.6801 3.18438 14.8263 3.27194 14.8263 3.61242V13.6031C14.8263 14.2257 14.6021 14.5954 13.8026 14.6537L4.35537 15.2277C3.7509 15.2569 3.46816 15.1693 3.15618 14.7705L1.23552 12.2898C0.89429 11.8326 0.748047 11.4921 0.748047 11.0933V2.21158C0.748047 1.69599 0.982035 1.27769 1.63525 1.21932Z" fill="#6B7070"/>
</svg>
