<svg width="17" height="14" viewBox="0 0 17 14" fill="none" xmlns="http://www.w3.org/2000/svg">
<path d="M8.89003 4.9568L5.59095 6.56814M5.62557 6.76779L6.26839 11.6355C6.31889 12.0179 6.34414 12.2091 6.43305 12.291C6.51026 12.3622 6.61645 12.3928 6.7197 12.3738C6.83859 12.3519 6.96189 12.2036 7.20849 11.907L15.0294 2.50021C15.2701 2.21069 15.3904 2.06594 15.391 1.94622C15.3915 1.84221 15.3435 1.74391 15.2612 1.68037C15.1664 1.60722 14.9782 1.61315 14.6019 1.62501L2.37041 2.01029C1.98603 2.0224 1.79384 2.02845 1.70352 2.10859C1.62508 2.17819 1.5839 2.2806 1.59234 2.38513C1.60206 2.50549 1.73658 2.64289 2.00562 2.91768L5.47773 6.4641C5.52394 6.5113 5.54704 6.5349 5.5648 6.5619C5.58056 6.58586 5.59316 6.61175 5.6023 6.63894C5.6126 6.66957 5.61693 6.70231 5.62557 6.76779Z" stroke="white" stroke-width="1.33511" stroke-linecap="round" stroke-linejoin="round"/>
</svg>
