<svg width="51" height="51" viewBox="0 0 51 51" fill="none" xmlns="http://www.w3.org/2000/svg">
<g filter="url(#filter0_d_76_595)">
<rect width="27.2817" height="27.2817" rx="13.6409" transform="matrix(1 0 0 -1 11.9102 33.7842)" fill="white"/>
</g>
<path d="M22.3945 21.5861C22.3945 22.2204 21.8823 22.733 21.2486 22.733C20.6148 22.733 20.1026 22.2204 20.1026 21.5861C20.1026 20.9519 20.6148 20.4392 21.2486 20.4392H22.3945V21.5861ZM22.9675 21.5861C22.9675 20.9519 23.4797 20.4392 24.1135 20.4392C24.7472 20.4392 25.2594 20.9519 25.2594 21.5861V24.4533C25.2594 25.0876 24.7472 25.6002 24.1135 25.6002C23.4797 25.6002 22.9675 25.0876 22.9675 24.4533V21.5861Z" fill="#7840D4"/>
<path d="M24.1136 16.9812C23.4798 16.9812 22.9676 16.4686 22.9676 15.8344C22.9676 15.2001 23.4798 14.6875 24.1136 14.6875C24.7473 14.6875 25.2595 15.2001 25.2595 15.8344V16.9812H24.1136ZM24.1136 17.5634C24.7473 17.5634 25.2595 18.076 25.2595 18.7102C25.2595 19.3445 24.7473 19.8571 24.1136 19.8571H21.24C20.6062 19.8571 20.094 19.3445 20.094 18.7102C20.094 18.076 20.6062 17.5634 21.24 17.5634H24.1136Z" fill="#7840D4"/>
<path d="M28.706 18.7102C28.706 18.076 29.2182 17.5634 29.8519 17.5634C30.4857 17.5634 30.9979 18.076 30.9979 18.7102C30.9979 19.3445 30.4857 19.8571 29.8519 19.8571H28.706V18.7102ZM28.133 18.7102C28.133 19.3445 27.6208 19.8571 26.987 19.8571C26.3533 19.8571 25.8411 19.3445 25.8411 18.7102V15.8344C25.8411 15.2001 26.3533 14.6875 26.987 14.6875C27.6208 14.6875 28.133 15.2001 28.133 15.8344V18.7102Z" fill="#7840D4"/>
<path d="M26.987 23.3064C27.6208 23.3064 28.133 23.8191 28.133 24.4533C28.133 25.0876 27.6208 25.6002 26.987 25.6002C26.3533 25.6002 25.8411 25.0876 25.8411 24.4533V23.3064H26.987ZM26.987 22.733C26.3533 22.733 25.8411 22.2204 25.8411 21.5861C25.8411 20.9519 26.3533 20.4392 26.987 20.4392H29.8606C30.4944 20.4392 31.0066 20.9519 31.0066 21.5861C31.0066 22.2204 30.4944 22.733 29.8606 22.733H26.987Z" fill="#7840D4"/>
<defs>
<filter id="filter0_d_76_595" x="0.888345" y="0.936972" width="49.3253" height="49.3254" filterUnits="userSpaceOnUse" color-interpolation-filters="sRGB">
<feFlood flood-opacity="0" result="BackgroundImageFix"/>
<feColorMatrix in="SourceAlpha" type="matrix" values="0 0 0 0 0 0 0 0 0 0 0 0 0 0 0 0 0 0 127 0" result="hardAlpha"/>
<feOffset dy="5.45634"/>
<feGaussianBlur stdDeviation="5.51091"/>
<feComposite in2="hardAlpha" operator="out"/>
<feColorMatrix type="matrix" values="0 0 0 0 0 0 0 0 0 0 0 0 0 0 0 0 0 0 0.12 0"/>
<feBlend mode="normal" in2="BackgroundImageFix" result="effect1_dropShadow_76_595"/>
<feBlend mode="normal" in="SourceGraphic" in2="effect1_dropShadow_76_595" result="shape"/>
</filter>
</defs>
</svg>
