<svg width="20" height="20" viewBox="0 0 20 20" fill="none" xmlns="http://www.w3.org/2000/svg">
<path d="M5.1176 11.8239C5.1176 12.7416 4.37648 13.4833 3.45951 13.4833C2.54254 13.4833 1.80142 12.7416 1.80142 11.8239C1.80142 10.9062 2.54254 10.1645 3.45951 10.1645H5.1176V11.8239ZM5.94664 11.8239C5.94664 10.9062 6.68776 10.1645 7.60473 10.1645C8.52171 10.1645 9.26282 10.9062 9.26282 11.8239V15.9724C9.26282 16.8901 8.52171 17.6318 7.60473 17.6318C6.68776 17.6318 5.94664 16.8901 5.94664 15.9724V11.8239Z" fill="#7840D4"/>
<path d="M7.60487 5.16111C6.6879 5.16111 5.94678 4.4194 5.94678 3.5017C5.94678 2.58399 6.6879 1.84229 7.60487 1.84229C8.52185 1.84229 9.26296 2.58399 9.26296 3.5017V5.16111H7.60487ZM7.60487 6.00339C8.52185 6.00339 9.26296 6.74509 9.26296 7.6628C9.26296 8.5805 8.52185 9.32221 7.60487 9.32221H3.44709C2.53012 9.32221 1.789 8.5805 1.789 7.6628C1.789 6.74509 2.53012 6.00339 3.44709 6.00339H7.60487Z" fill="#7840D4"/>
<path d="M14.2496 7.6628C14.2496 6.74509 14.9907 6.00339 15.9077 6.00339C16.8247 6.00339 17.5658 6.74509 17.5658 7.6628C17.5658 8.5805 16.8247 9.32221 15.9077 9.32221H14.2496V7.6628ZM13.4206 7.6628C13.4206 8.5805 12.6794 9.32221 11.7625 9.32221C10.8455 9.32221 10.1044 8.5805 10.1044 7.6628V3.5017C10.1044 2.58399 10.8455 1.84229 11.7625 1.84229C12.6794 1.84229 13.4206 2.58399 13.4206 3.5017V7.6628Z" fill="#7840D4"/>
<path d="M11.7625 14.313C12.6794 14.313 13.4206 15.0547 13.4206 15.9724C13.4206 16.8901 12.6794 17.6318 11.7625 17.6318C10.8455 17.6318 10.1044 16.8901 10.1044 15.9724V14.313H11.7625ZM11.7625 13.4833C10.8455 13.4833 10.1044 12.7416 10.1044 11.8239C10.1044 10.9062 10.8455 10.1645 11.7625 10.1645H15.9203C16.8372 10.1645 17.5783 10.9062 17.5783 11.8239C17.5783 12.7416 16.8372 13.4833 15.9203 13.4833H11.7625Z" fill="#7840D4"/>
</svg>
