<svg width="34" height="15" viewBox="0 0 34 15" fill="none" xmlns="http://www.w3.org/2000/svg">
<path fill-rule="evenodd" clip-rule="evenodd" d="M33.9474 8.01344C33.9474 5.61664 32.7864 3.72542 30.5675 3.72542C28.3392 3.72542 26.991 5.61664 26.991 7.99471C26.991 10.8128 28.5827 12.2359 30.8671 12.2359C31.9813 12.2359 32.8239 11.9831 33.4605 11.6274V9.75486C32.8239 10.0732 32.0936 10.2698 31.1667 10.2698C30.2586 10.2698 29.4534 9.95147 29.3504 8.8467H33.9287C33.9287 8.72499 33.9474 8.23814 33.9474 8.01344ZM29.3223 7.124C29.3223 6.06604 29.9683 5.626 30.5582 5.626C31.1293 5.626 31.7378 6.06604 31.7378 7.124H29.3223Z" fill="#6B7070"/>
<path fill-rule="evenodd" clip-rule="evenodd" d="M23.3771 3.72541C22.4595 3.72541 21.8697 4.15609 21.542 4.45569L21.4203 3.87521H19.3606V14.7919L21.7012 14.2957L21.7105 11.6461C22.0476 11.8895 22.5438 12.2359 23.3677 12.2359C25.0436 12.2359 26.5697 10.8877 26.5697 7.91981C26.5603 5.20468 25.0155 3.72541 23.3771 3.72541ZM22.8153 10.1762C22.2629 10.1762 21.9352 9.97955 21.7105 9.73613L21.7012 6.26265C21.9446 5.99113 22.2816 5.80388 22.8153 5.80388C23.6673 5.80388 24.2571 6.75886 24.2571 7.98534C24.2571 9.23992 23.6767 10.1762 22.8153 10.1762Z" fill="#6B7070"/>
<path fill-rule="evenodd" clip-rule="evenodd" d="M16.1398 3.17301L18.4898 2.66743V0.766846L16.1398 1.26306V3.17301Z" fill="#6B7070"/>
<path d="M18.4898 3.88456H16.1398V12.0767H18.4898V3.88456Z" fill="#6B7070"/>
<path fill-rule="evenodd" clip-rule="evenodd" d="M13.6212 4.57738L13.4714 3.88456H11.4491V12.0767H13.7897V6.52478C14.3421 5.80387 15.2784 5.93494 15.5686 6.03793V3.88456C15.269 3.77221 14.1736 3.56623 13.6212 4.57738Z" fill="#6B7070"/>
<path fill-rule="evenodd" clip-rule="evenodd" d="M8.94003 1.85288L6.65558 2.33973L6.64622 9.83909C6.64622 11.2247 7.68546 12.2452 9.0711 12.2452C9.83883 12.2452 10.4006 12.1048 10.7095 11.9363V10.0357C10.4099 10.1574 8.93067 10.5881 8.93067 9.20244V5.87875H10.7095V3.88455H8.93067L8.94003 1.85288Z" fill="#6B7070"/>
<path fill-rule="evenodd" clip-rule="evenodd" d="M2.61108 6.26265C2.61108 5.89751 2.91068 5.75708 3.40689 5.75708C4.11844 5.75708 5.01724 5.97241 5.72879 6.35628V4.15609C4.9517 3.84713 4.18398 3.72542 3.40689 3.72542C1.50631 3.72542 0.242371 4.71784 0.242371 6.375C0.242371 8.95905 3.80012 8.5471 3.80012 9.66124C3.80012 10.0919 3.42562 10.2323 2.90132 10.2323C2.12423 10.2323 1.13181 9.91402 0.345358 9.48335V11.7116C1.21607 12.0861 2.09614 12.2453 2.90132 12.2453C4.84871 12.2453 6.18755 11.2809 6.18755 9.60506C6.17819 6.81504 2.61108 7.31125 2.61108 6.26265Z" fill="#6B7070"/>
</svg>
